<svg width="18" height="18" viewBox="0 0 18 18" fill="none" xmlns="http://www.w3.org/2000/svg">
<g clip-path="url(#clip0)">
<path fill-rule="evenodd" clip-rule="evenodd" d="M8.46702 16.336C10.4298 16.3524 12.3189 15.5685 13.7187 14.1566C15.1185 12.7447 15.9144 10.8205 15.9312 8.80743C15.9481 6.79431 15.1845 4.85712 13.8085 3.42203C12.4325 1.98693 10.5568 1.17148 8.59399 1.15506C6.6312 1.13864 4.74212 1.92261 3.34231 3.33449C1.9425 4.74637 1.14664 6.67051 1.1298 8.68363C1.11296 10.6967 1.87653 12.6339 3.25253 14.069C4.62852 15.5041 6.50423 16.3196 8.46702 16.336ZM8.60306 0.070706C10.8463 0.0894679 12.9899 1.02141 14.5625 2.66152C16.1351 4.30164 17.0077 6.51556 16.9885 8.81627C16.9692 11.117 16.0597 13.316 14.4599 14.9296C12.8601 16.5432 10.7011 17.4391 8.45795 17.4204C6.21476 17.4016 4.07109 16.4696 2.49853 14.8295C0.925961 13.1894 0.0533127 10.9755 0.0725556 8.67479C0.0917986 6.37408 1.00136 4.17506 2.60114 2.56148C4.20092 0.947903 6.35987 0.0519441 8.60306 0.070706ZM4.83469 8.1724C4.69449 8.17123 4.55955 8.22723 4.45957 8.32808C4.35958 8.42892 4.30273 8.56636 4.30153 8.71016C4.30033 8.85395 4.35487 8.99232 4.45316 9.09483C4.55144 9.19734 4.68542 9.25558 4.82562 9.25676L10.9502 9.30798L8.66087 11.616C8.56076 11.717 8.50384 11.8546 8.50263 11.9986C8.50143 12.1426 8.55604 12.2811 8.65445 12.3837C8.75286 12.4864 8.887 12.5447 9.02738 12.5459C9.16776 12.547 9.30286 12.491 9.40298 12.39L12.6019 9.16347C12.6516 9.11352 12.6911 9.05401 12.7183 8.98837C12.7455 8.92272 12.7598 8.85222 12.7604 8.78091C12.761 8.70959 12.7479 8.63886 12.7218 8.57277C12.6957 8.50668 12.6571 8.44652 12.6083 8.39575L9.46381 5.11616C9.3654 5.01352 9.23125 4.9552 9.09088 4.95403C8.9505 4.95286 8.8154 5.00892 8.71528 5.1099C8.61517 5.21088 8.55825 5.34849 8.55705 5.49246C8.55584 5.63644 8.61045 5.77499 8.70886 5.87762L10.9593 8.22363L4.83469 8.1724Z" fill="black"/>
</g>
<defs>
<clipPath id="clip0">
<rect y="17.3496" width="17.3503" height="16.9165" rx="8.45825" transform="rotate(-89.5208 0 17.3496)" fill="white"/>
</clipPath>
</defs>
</svg>
