<svg width="64" height="38" viewBox="0 0 64 38" fill="none" xmlns="http://www.w3.org/2000/svg">
<path d="M43.373 2.02198C41.71 3.68598 36.718 10.34 39.214 16.164C41.709 21.987 45.123 18.403 46.7 13.669C47.532 11.173 47.532 7.84499 45.869 2.85398C45.037 0.357985 43.373 2.02198 43.373 2.02198ZM62.677 21.326C61.014 22.989 54.358 27.981 48.535 25.485C42.711 22.989 46.294 19.576 51.03 17.999C53.527 17.167 56.853 17.166 61.844 18.831C64.34 19.662 62.677 21.326 62.677 21.326Z" fill="#5C913B"/>
<path d="M60.314 7.31694C60.314 7.31694 60.169 5.58994 59.533 5.06394C59.098 4.51794 57.515 4.51794 57.515 4.51794C55.851 4.51794 36.717 7.01394 33.39 23.6509C32.795 26.6239 38.017 31.8919 41.028 31.2889C57.667 27.9629 60.313 8.97994 60.314 7.31694Z" fill="#F4900C"/>
<path d="M52.769 9.81596L51.152 8.19896C50.9361 7.99182 50.6476 7.87753 50.3484 7.8806C50.0491 7.88366 49.763 8.00384 49.5514 8.21536C49.3397 8.42688 49.2194 8.71291 49.2161 9.01211C49.2129 9.31132 49.327 9.5999 49.534 9.81596L51.152 11.434C51.3681 11.641 51.6567 11.7551 51.9559 11.7518C52.2551 11.7486 52.5411 11.6282 52.7526 11.4166C52.9641 11.2049 53.0843 10.9188 53.0874 10.6196C53.0904 10.3204 52.9762 10.0319 52.769 9.81596ZM43.064 11.435C43.2801 11.642 43.5687 11.7561 43.8679 11.7528C44.1671 11.7496 44.4531 11.6292 44.6646 11.4176C44.8761 11.2059 44.9963 10.9198 44.9994 10.6206C45.0024 10.3214 44.8882 10.0329 44.681 9.81696L43.911 9.04696C43.257 9.44496 42.609 9.87596 41.973 10.344L43.064 11.435ZM45.49 9.00796C45.7044 9.22239 45.9953 9.34286 46.2985 9.34286C46.6018 9.34286 46.8926 9.22239 47.107 9.00796C47.3214 8.79354 47.4419 8.50271 47.4419 8.19946C47.4419 7.89622 47.3214 7.60539 47.107 7.39096L47.082 7.36596C46.371 7.69096 45.651 8.05396 44.933 8.45196L45.49 9.00796ZM40.637 13.861C40.8551 14.0576 41.1403 14.163 41.4339 14.1555C41.7274 14.1479 42.0068 14.028 42.2145 13.8204C42.4222 13.6129 42.5423 13.3335 42.55 13.04C42.5578 12.7465 42.4525 12.4612 42.256 12.243L41.058 11.047C40.472 11.521 39.902 12.032 39.351 12.575L40.637 13.861ZM51.96 5.77296C51.8538 5.87911 51.7695 6.00515 51.712 6.14388C51.6545 6.2826 51.625 6.4313 51.625 6.58146C51.625 6.73163 51.6545 6.88033 51.712 7.01905C51.7695 7.15778 51.8538 7.28382 51.96 7.38996L53.577 9.00696C53.7914 9.22139 54.0823 9.34186 54.3855 9.34186C54.6888 9.34186 54.9796 9.22139 55.194 9.00696C55.4084 8.79254 55.5289 8.50171 55.5289 8.19846C55.5289 7.89522 55.4084 7.60439 55.194 7.38996L53.577 5.77296C53.3625 5.55868 53.0717 5.43832 52.7685 5.43832C52.4653 5.43832 52.1745 5.55868 51.96 5.77296ZM54.368 4.97696C54.374 4.98396 54.376 4.99296 54.383 4.99996L56 6.61696C56.2144 6.83139 56.5053 6.95186 56.8085 6.95186C57.1118 6.95186 57.4026 6.83139 57.617 6.61696C57.8314 6.40254 57.9519 6.11171 57.9519 5.80846C57.9519 5.50522 57.8314 5.21439 57.617 4.99996L57.155 4.53796C56.615 4.58196 55.639 4.70996 54.368 4.97696ZM50.343 13.861C50.5571 13.6462 50.6773 13.3552 50.6773 13.052C50.6773 12.7487 50.5571 12.4578 50.343 12.243L48.725 10.626C48.5106 10.4115 48.2198 10.2911 47.9165 10.2911C47.6133 10.2911 47.3224 10.4115 47.108 10.626C46.8936 10.8404 46.7731 11.1312 46.7731 11.4345C46.7731 11.7377 46.8936 12.0285 47.108 12.243L48.725 13.861C48.9398 14.0751 49.2307 14.1953 49.534 14.1953C49.8373 14.1953 50.1282 14.0751 50.343 13.861ZM47.915 16.287C48.0213 16.1807 48.1055 16.0546 48.1631 15.9158C48.2206 15.777 48.2502 15.6282 48.2502 15.478C48.2502 15.3277 48.2206 15.1789 48.1631 15.0401C48.1055 14.9013 48.0213 14.7752 47.915 14.669L46.298 13.052C46.1918 12.9458 46.0658 12.8616 45.9271 12.8041C45.7883 12.7466 45.6397 12.7171 45.4895 12.7171C45.3394 12.7171 45.1907 12.7466 45.052 12.8041C44.9132 12.8616 44.7872 12.9458 44.681 13.052C44.5748 13.1581 44.4906 13.2842 44.4332 13.4229C44.3757 13.5616 44.3461 13.7103 44.3461 13.8605C44.3461 14.0106 44.3757 14.1593 44.4332 14.298C44.4906 14.4367 44.5748 14.5628 44.681 14.669L46.298 16.287C46.5125 16.5012 46.8033 16.6216 47.1065 16.6216C47.4097 16.6216 47.7005 16.5012 47.915 16.287ZM43.064 21.139C43.2784 20.9243 43.3987 20.6333 43.3987 20.33C43.3987 20.0266 43.2784 19.7356 43.064 19.521L41.446 17.904C41.3398 17.7978 41.2138 17.7136 41.0751 17.6561C40.9363 17.5986 40.7877 17.5691 40.6375 17.5691C40.4874 17.5691 40.3387 17.5986 40.2 17.6561C40.0612 17.7136 39.9352 17.7978 39.829 17.904C39.7228 18.0101 39.6386 18.1362 39.5812 18.2749C39.5237 18.4136 39.4941 18.5623 39.4941 18.7125C39.4941 18.8626 39.5237 19.0113 39.5812 19.15C39.6386 19.2887 39.7228 19.4148 39.829 19.521L41.446 21.139C41.6608 21.3531 41.9517 21.4733 42.255 21.4733C42.5583 21.4733 42.8492 21.3531 43.064 21.139ZM42.256 15.478C42.1498 15.5842 42.0655 15.7103 42.008 15.8491C41.9505 15.9879 41.9209 16.1367 41.9209 16.287C41.9209 16.4372 41.9505 16.586 42.008 16.7248C42.0655 16.8636 42.1498 16.9897 42.256 17.096L43.873 18.713C44.0874 18.9275 44.3783 19.0481 44.6817 19.0482C44.985 19.0483 45.276 18.9279 45.4905 18.7135C45.7051 18.499 45.8257 18.2082 45.8258 17.9048C45.8259 17.6015 45.7054 17.3105 45.491 17.096L43.873 15.478C43.7669 15.3717 43.6408 15.2875 43.5021 15.23C43.3634 15.1725 43.2147 15.1429 43.0645 15.1429C42.9143 15.1429 42.7657 15.1725 42.6269 15.23C42.4882 15.2875 42.3622 15.3717 42.256 15.478Z" fill="#F7B82D"/>
<path d="M55.866 24.574C48.741 22.2 40.769 25.226 36.448 28.15C39.373 23.829 42.398 15.856 40.024 8.73195C39.09 5.93195 34.422 3.13095 31.622 5.93095C30.688 6.86495 29.755 7.79895 31.622 7.79895C33.489 7.79895 36.289 10.599 35.357 13.4C34.522 15.905 28.468 22.142 31.204 28.775C30.934 28.89 30.681 29.054 30.46 29.274L29.745 29.988C29.3035 30.4294 29.0555 31.0281 29.0555 31.6525C29.0555 32.2768 29.3035 32.8755 29.745 33.317L30.461 34.033C31.38 34.953 32.87 34.953 33.789 34.033L34.504 33.317C34.6236 33.1963 34.7295 33.0628 34.82 32.919C41.819 36.759 48.567 30.12 51.199 29.242C53.999 28.309 56.799 31.11 56.799 32.976C56.799 34.843 57.733 33.91 58.666 32.976C61.467 30.176 58.665 25.506 55.866 24.574Z" fill="#77B255"/>
<path d="M55.866 24.574C48.741 22.2 40.769 25.226 36.448 28.15C39.373 23.829 42.398 15.856 40.024 8.73195C39.09 5.93195 34.422 3.13095 31.622 5.93095C30.688 6.86495 29.755 7.79895 31.622 7.79895C33.489 7.79895 36.289 10.599 35.357 13.4C34.522 15.905 28.468 22.142 31.204 28.775C30.934 28.89 30.681 29.054 30.46 29.274L29.745 29.988C29.3035 30.4294 29.0555 31.0281 29.0555 31.6525C29.0555 32.2768 29.3035 32.8755 29.745 33.317L30.461 34.033C31.38 34.953 32.87 34.953 33.789 34.033L34.504 33.317C34.6236 33.1963 34.7295 33.0628 34.82 32.919C41.819 36.759 48.567 30.12 51.199 29.242C53.999 28.309 56.799 31.11 56.799 32.976C56.799 34.843 57.733 33.91 58.666 32.976C61.467 30.176 58.665 25.506 55.866 24.574Z" fill="#77B255"/>
<g clip-path="url(#clip0)">
<path d="M2.03887 22.3285C3.78293 23.9073 10.6752 28.5648 16.3689 25.7843C22.0617 23.0049 18.3135 19.772 13.5074 18.4306C10.9734 17.7228 7.64947 17.8871 2.74664 19.7944C0.294757 20.7486 2.03887 22.3285 2.03887 22.3285ZM20.3664 2.09512C22.1095 3.674 27.424 10.0755 25.2185 16.0146C23.013 21.9547 19.4273 18.5445 17.6184 13.8921C16.6642 11.4393 16.499 8.11736 17.9156 3.05026C18.6224 0.516278 20.3664 2.09512 20.3664 2.09512Z" fill="#5C913B"/>
<path d="M6.49117 5.14671C6.49117 5.14671 4.77343 5.37678 4.27947 6.03797C3.75561 6.49939 3.83375 8.08046 3.83375 8.08046C3.91588 9.74244 7.35334 28.7299 24.1343 31.2316C27.133 31.6791 32.1368 26.2035 31.3859 23.2259C27.2427 6.77135 8.15219 5.06562 6.49117 5.14671Z" fill="#F4900C"/>
<path d="M9.35959 12.5591L7.82438 14.254C7.62815 14.4799 7.52824 14.7737 7.54607 15.0724C7.5639 15.3711 7.69806 15.6509 7.91977 15.8518C8.14147 16.0528 8.43309 16.1589 8.7321 16.1474C9.0311 16.1358 9.31369 16.0076 9.51928 15.7902L11.0554 14.0943C11.2515 13.8683 11.3513 13.5744 11.3332 13.2757C11.3152 12.9771 11.1809 12.6973 10.9591 12.4965C10.7372 12.2957 10.4455 12.1898 10.1465 12.2015C9.84755 12.2132 9.56504 12.3416 9.35959 12.5591ZM11.4557 22.1724C11.6518 21.9464 11.7515 21.6525 11.7335 21.3538C11.7155 21.0551 11.5811 20.7754 11.3593 20.5746C11.1375 20.3738 10.8458 20.2679 10.5468 20.2796C10.2478 20.2913 9.96528 20.4197 9.75983 20.6372L9.02878 21.4443C9.45858 22.0779 9.92104 22.7038 10.4199 23.3159L11.4557 22.1724ZM8.91188 19.8691C9.11546 19.6444 9.22143 19.348 9.20646 19.0451C9.19149 18.7422 9.05682 18.4577 8.83206 18.2541C8.60731 18.0505 8.3109 17.9446 8.00802 17.9595C7.70514 17.9745 7.42062 18.1092 7.21704 18.3339L7.1933 18.3601C7.553 19.0542 7.9511 19.7554 8.38406 20.4529L8.91188 19.8691ZM13.9985 24.4767C14.1841 24.2492 14.2754 23.9591 14.2533 23.6663C14.2313 23.3735 14.0977 23.1003 13.8802 22.9031C13.6626 22.7059 13.3777 22.5997 13.0841 22.6065C12.7906 22.6133 12.5108 22.7325 12.3026 22.9395L11.1672 24.1951C11.6695 24.757 12.208 25.3011 12.7776 25.8246L13.9985 24.4767ZM5.36145 13.5667C5.47271 13.6676 5.60276 13.7455 5.74415 13.7961C5.88555 13.8467 6.03552 13.8689 6.18551 13.8615C6.33549 13.854 6.48254 13.8172 6.61826 13.7529C6.75398 13.6886 6.87571 13.5982 6.97648 13.4869L8.51169 11.7921C8.71527 11.5673 8.82123 11.2709 8.80627 10.968C8.7913 10.6651 8.65662 10.3806 8.43187 10.177C8.20712 9.97344 7.9107 9.86748 7.60783 9.88245C7.30495 9.89742 7.02043 10.0321 6.81684 10.2568L5.28163 11.9517C5.07821 12.1765 4.97235 12.4729 4.98731 12.7757C5.00228 13.0786 5.13685 13.3631 5.36145 13.5667ZM4.44756 11.2009C4.45425 11.1946 4.46315 11.1922 4.46979 11.1848L6.005 9.48999C6.20858 9.26523 6.31454 8.96882 6.29958 8.66594C6.28461 8.36306 6.14993 8.07854 5.92518 7.87496C5.70043 7.67137 5.40401 7.56541 5.10114 7.58038C4.79826 7.59535 4.51374 7.73002 4.31015 7.95477L3.87152 8.43902C3.94212 8.97619 4.11815 9.94468 4.44756 11.2009ZM13.5194 14.7825C13.2943 14.5793 12.9978 14.4736 12.6949 14.4885C12.392 14.5035 12.1074 14.6379 11.9034 14.8624L10.3682 16.5582C10.1646 16.783 10.0587 17.0794 10.0736 17.3823C10.0886 17.6851 10.2233 17.9697 10.448 18.1733C10.6728 18.3768 10.9692 18.4828 11.2721 18.4678C11.575 18.4529 11.8595 18.3182 12.0631 18.0934L13.5993 16.3985C13.8025 16.1734 13.9082 15.8769 13.8933 15.574C13.8783 15.2711 13.7438 14.9865 13.5194 14.7825ZM16.0623 17.0878C15.951 16.9869 15.8208 16.909 15.6794 16.8584C15.5379 16.8078 15.3878 16.7856 15.2377 16.793C15.0877 16.8004 14.9405 16.8373 14.8047 16.9016C14.6689 16.9659 14.5471 17.0563 14.4463 17.1677L12.9111 18.8625C12.8103 18.9738 12.7324 19.1038 12.6818 19.2452C12.6313 19.3866 12.6091 19.5366 12.6165 19.6866C12.6239 19.8365 12.6608 19.9836 12.725 20.1193C12.7893 20.255 12.8796 20.3767 12.9909 20.4775C13.1022 20.5783 13.2322 20.6562 13.3736 20.7068C13.515 20.7573 13.665 20.7795 13.8149 20.7721C13.9649 20.7647 14.1119 20.7278 14.2477 20.6636C14.3834 20.5993 14.5051 20.509 14.6059 20.3977L16.1421 18.7028C16.3456 18.478 16.4514 18.1816 16.4364 17.8788C16.4215 17.576 16.2869 17.2915 16.0623 17.0878ZM21.1478 21.6934C20.9229 21.4899 20.6263 21.384 20.3233 21.399C20.0203 21.414 19.7357 21.5486 19.5318 21.7732L17.9967 23.4691C17.8959 23.5804 17.818 23.7104 17.7674 23.8518C17.7169 23.9932 17.6947 24.1432 17.7021 24.2931C17.7095 24.4431 17.7464 24.5901 17.8106 24.7259C17.8749 24.8616 17.9652 24.9833 18.0765 25.0841C18.1878 25.1849 18.3178 25.2628 18.4592 25.3134C18.6006 25.3639 18.7506 25.3861 18.9005 25.3787C19.0505 25.3713 19.1975 25.3344 19.3332 25.2702C19.469 25.2059 19.5907 25.1156 19.6915 25.0043L21.2277 23.3094C21.4309 23.0843 21.5367 22.7878 21.5217 22.4849C21.5067 22.182 21.3723 21.8974 21.1478 21.6934ZM15.5336 22.7798C15.645 22.8807 15.7751 22.9587 15.9166 23.0092C16.0581 23.0598 16.2081 23.082 16.3582 23.0746C16.5083 23.0672 16.6554 23.0303 16.7912 22.966C16.927 22.9017 17.0488 22.8113 17.1497 22.7L18.6849 21.0051C18.8886 20.7804 18.9947 20.4839 18.9798 20.1809C18.9649 19.8779 18.8303 19.5933 18.6055 19.3896C18.3808 19.1859 18.0843 19.0798 17.7813 19.0946C17.4783 19.1095 17.1937 19.2442 16.99 19.4689L15.4538 21.1648C15.353 21.2761 15.275 21.4061 15.2245 21.5475C15.1739 21.6889 15.1517 21.8389 15.1591 21.9889C15.1665 22.1388 15.2034 22.2859 15.2677 22.4216C15.3319 22.5573 15.4223 22.6791 15.5336 22.7798Z" fill="#F7B82D"/>
<path d="M23.9467 8.73742C21.9273 15.9709 25.3432 23.7838 28.4769 27.9552C24.0168 25.2471 15.9042 22.6193 8.90604 25.3421C6.15555 26.4132 3.58839 31.2138 6.52319 33.8721C7.50216 34.7589 8.48107 35.6446 8.38891 33.7799C8.29675 31.9152 10.9551 28.9804 13.7987 29.773C16.3419 30.4833 22.8701 36.2221 29.36 33.162C29.4882 33.426 29.6645 33.6706 29.8951 33.8804L30.6435 34.5593C31.1062 34.9784 31.7165 35.1966 32.34 35.1658C32.9636 35.135 33.5493 34.8577 33.9685 34.395L34.6482 33.6445C35.5218 32.6812 35.4482 31.1931 34.484 30.3206L33.7335 29.6418C33.6071 29.5283 33.4686 29.4291 33.3204 29.3458C36.8103 22.1658 29.8463 15.7538 28.8394 13.1683C27.7693 10.4178 30.4287 7.48293 32.2924 7.39082C34.1572 7.29866 33.1792 6.41185 32.2003 5.52609C29.2654 2.86672 24.7394 5.89583 23.9467 8.73742Z" fill="#77B255"/>
<path d="M23.9467 8.73742C21.9273 15.9709 25.3431 23.7838 28.4768 27.9552C24.0167 25.2471 15.9041 22.6193 8.90597 25.3421C6.15549 26.4132 3.58833 31.2138 6.52313 33.8721C7.5021 34.7589 8.48101 35.6446 8.38885 33.7799C8.29669 31.9152 10.9551 28.9804 13.7987 29.773C16.3418 30.4833 22.8701 36.2221 29.3599 33.162C29.4881 33.426 29.6644 33.6706 29.895 33.8804L30.6435 34.5593C31.1062 34.9784 31.7164 35.1966 32.34 35.1658C32.9635 35.135 33.5493 34.8577 33.9684 34.395L34.6482 33.6445C35.5217 32.6812 35.4481 31.1931 34.4839 30.3206L33.7335 29.6418C33.607 29.5283 33.4685 29.4291 33.3204 29.3458C36.8102 22.1658 29.8462 15.7538 28.8394 13.1683C27.7693 10.4178 30.4286 7.48293 32.2924 7.39082C34.1571 7.29866 33.1791 6.41185 32.2002 5.52609C29.2654 2.86672 24.7394 5.89583 23.9467 8.73742Z" fill="#77B255"/>
</g>
<defs>
<clipPath id="clip0">
<rect width="36" height="36" fill="white" transform="translate(1.77698 37.7332) rotate(-92.8294)"/>
</clipPath>
</defs>
</svg>
