<svg width="107" height="84" viewBox="0 0 107 84" fill="none" xmlns="http://www.w3.org/2000/svg">
<g filter="url(#filter0_d)">
<path d="M92 48.6667C92 50.3758 91.0518 52.015 89.364 53.2236C87.6761 54.4321 85.3869 55.1111 83 55.1111H29L11 68V16.4444C11 14.7353 11.9482 13.0961 13.636 11.8875C15.3239 10.679 17.6131 10 20 10H83C85.3869 10 87.6761 10.679 89.364 11.8875C91.0518 13.0961 92 14.7353 92 16.4444V48.6667Z" fill="#DAF7DE" stroke="#5C913B" stroke-width="1.5" stroke-linecap="round" stroke-linejoin="round"/>
</g>
<path d="M19.36 25.54V30.2H24.44V31.7H19.36V36.5H25.04V38H17.54V24.04H25.04V25.54H19.36ZM33.1339 26.84C34.4672 26.84 35.5472 27.2467 36.3739 28.06C37.2006 28.86 37.6139 30.02 37.6139 31.54V38H35.8139V31.8C35.8139 30.7067 35.5406 29.8733 34.9939 29.3C34.4472 28.7133 33.7006 28.42 32.7539 28.42C31.7939 28.42 31.0272 28.72 30.4539 29.32C29.8939 29.92 29.6139 30.7933 29.6139 31.94V38H27.7939V27.04H29.6139V28.6C29.9739 28.04 30.4606 27.6067 31.0739 27.3C31.7006 26.9933 32.3872 26.84 33.1339 26.84ZM45.1069 26.86C46.0535 26.86 46.8802 27.0667 47.5869 27.48C48.3069 27.8933 48.8402 28.4133 49.1869 29.04V27.04H51.0269V38.24C51.0269 39.24 50.8135 40.1267 50.3869 40.9C49.9602 41.6867 49.3469 42.3 48.5469 42.74C47.7602 43.18 46.8402 43.4 45.7869 43.4C44.3469 43.4 43.1469 43.06 42.1869 42.38C41.2269 41.7 40.6602 40.7733 40.4869 39.6H42.2869C42.4869 40.2667 42.9002 40.8 43.5269 41.2C44.1535 41.6133 44.9069 41.82 45.7869 41.82C46.7869 41.82 47.6002 41.5067 48.2269 40.88C48.8669 40.2533 49.1869 39.3733 49.1869 38.24V35.94C48.8269 36.58 48.2935 37.1133 47.5869 37.54C46.8802 37.9667 46.0535 38.18 45.1069 38.18C44.1335 38.18 43.2469 37.94 42.4469 37.46C41.6602 36.98 41.0402 36.3067 40.5869 35.44C40.1335 34.5733 39.9069 33.5867 39.9069 32.48C39.9069 31.36 40.1335 30.38 40.5869 29.54C41.0402 28.6867 41.6602 28.0267 42.4469 27.56C43.2469 27.0933 44.1335 26.86 45.1069 26.86ZM49.1869 32.5C49.1869 31.6733 49.0202 30.9533 48.6869 30.34C48.3535 29.7267 47.9002 29.26 47.3269 28.94C46.7669 28.6067 46.1469 28.44 45.4669 28.44C44.7869 28.44 44.1669 28.6 43.6069 28.92C43.0469 29.24 42.6002 29.7067 42.2669 30.32C41.9335 30.9333 41.7669 31.6533 41.7669 32.48C41.7669 33.32 41.9335 34.0533 42.2669 34.68C42.6002 35.2933 43.0469 35.7667 43.6069 36.1C44.1669 36.42 44.7869 36.58 45.4669 36.58C46.1469 36.58 46.7669 36.42 47.3269 36.1C47.9002 35.7667 48.3535 35.2933 48.6869 34.68C49.0202 34.0533 49.1869 33.3267 49.1869 32.5ZM55.9225 23.2V38H54.1025V23.2H55.9225ZM59.9644 25.26C59.6177 25.26 59.3244 25.14 59.0844 24.9C58.8444 24.66 58.7244 24.3667 58.7244 24.02C58.7244 23.6733 58.8444 23.38 59.0844 23.14C59.3244 22.9 59.6177 22.78 59.9644 22.78C60.2977 22.78 60.5777 22.9 60.8044 23.14C61.0444 23.38 61.1644 23.6733 61.1644 24.02C61.1644 24.3667 61.0444 24.66 60.8044 24.9C60.5777 25.14 60.2977 25.26 59.9644 25.26ZM60.8444 27.04V38H59.0244V27.04H60.8444ZM67.8263 38.18C66.9863 38.18 66.2329 38.04 65.5663 37.76C64.8996 37.4667 64.3729 37.0667 63.9863 36.56C63.5996 36.04 63.3863 35.4467 63.3463 34.78H65.2263C65.2796 35.3267 65.5329 35.7733 65.9863 36.12C66.4529 36.4667 67.0596 36.64 67.8063 36.64C68.4996 36.64 69.0463 36.4867 69.4463 36.18C69.8463 35.8733 70.0463 35.4867 70.0463 35.02C70.0463 34.54 69.8329 34.1867 69.4063 33.96C68.9796 33.72 68.3196 33.4867 67.4263 33.26C66.6129 33.0467 65.9463 32.8333 65.4263 32.62C64.9196 32.3933 64.4796 32.0667 64.1063 31.64C63.7463 31.2 63.5663 30.6267 63.5663 29.92C63.5663 29.36 63.7329 28.8467 64.0663 28.38C64.3996 27.9133 64.8729 27.5467 65.4863 27.28C66.0996 27 66.7996 26.86 67.5863 26.86C68.7996 26.86 69.7796 27.1667 70.5263 27.78C71.2729 28.3933 71.6729 29.2333 71.7263 30.3H69.9063C69.8663 29.7267 69.6329 29.2667 69.2063 28.92C68.7929 28.5733 68.2329 28.4 67.5263 28.4C66.8729 28.4 66.3529 28.54 65.9663 28.82C65.5796 29.1 65.3863 29.4667 65.3863 29.92C65.3863 30.28 65.4996 30.58 65.7263 30.82C65.9663 31.0467 66.2596 31.2333 66.6063 31.38C66.9663 31.5133 67.4596 31.6667 68.0863 31.84C68.8729 32.0533 69.5129 32.2667 70.0063 32.48C70.4996 32.68 70.9196 32.9867 71.2663 33.4C71.6263 33.8133 71.8129 34.3533 71.8263 35.02C71.8263 35.62 71.6596 36.16 71.3263 36.64C70.9929 37.12 70.5196 37.5 69.9063 37.78C69.3063 38.0467 68.6129 38.18 67.8263 38.18ZM79.8355 26.84C80.6621 26.84 81.4088 27.02 82.0755 27.38C82.7421 27.7267 83.2621 28.2533 83.6355 28.96C84.0221 29.6667 84.2155 30.5267 84.2155 31.54V38H82.4155V31.8C82.4155 30.7067 82.1421 29.8733 81.5955 29.3C81.0488 28.7133 80.3021 28.42 79.3555 28.42C78.3955 28.42 77.6288 28.72 77.0555 29.32C76.4955 29.92 76.2155 30.7933 76.2155 31.94V38H74.3955V23.2H76.2155V28.6C76.5755 28.04 77.0688 27.6067 77.6955 27.3C78.3355 26.9933 79.0488 26.84 79.8355 26.84Z" fill="#4C504D"/>
<defs>
<filter id="filter0_d" x="0.25" y="0.25" width="106.5" height="83.5" filterUnits="userSpaceOnUse" color-interpolation-filters="sRGB">
<feFlood flood-opacity="0" result="BackgroundImageFix"/>
<feColorMatrix in="SourceAlpha" type="matrix" values="0 0 0 0 0 0 0 0 0 0 0 0 0 0 0 0 0 0 127 0" result="hardAlpha"/>
<feOffset dx="2" dy="3"/>
<feGaussianBlur stdDeviation="6"/>
<feColorMatrix type="matrix" values="0 0 0 0 0.705882 0 0 0 0 0.945098 0 0 0 0 0.529412 0 0 0 0.35 0"/>
<feBlend mode="normal" in2="BackgroundImageFix" result="effect1_dropShadow"/>
<feBlend mode="normal" in="SourceGraphic" in2="effect1_dropShadow" result="shape"/>
</filter>
</defs>
</svg>
