<svg width="107" height="84" viewBox="0 0 107 84" fill="none" xmlns="http://www.w3.org/2000/svg">
<g filter="url(#filter0_d)">
<path d="M92 48.6667C92 50.3758 91.0518 52.015 89.364 53.2236C87.6761 54.4321 85.3869 55.1111 83 55.1111H29L11 68V16.4444C11 14.7353 11.9482 13.0961 13.636 11.8875C15.3239 10.679 17.6131 10 20 10H83C85.3869 10 87.6761 10.679 89.364 11.8875C91.0518 13.0961 92 14.7353 92 16.4444V48.6667Z" fill="#5EB216" stroke="#5C913B" stroke-width="1.5" stroke-linecap="round" stroke-linejoin="round"/>
</g>
<path d="M21.5358 28.54V33.2H26.6158V34.7H21.5358V39.5H27.2158V41H19.7158V27.04H27.2158V28.54H21.5358ZM35.3097 29.84C36.643 29.84 37.723 30.2467 38.5497 31.06C39.3764 31.86 39.7897 33.02 39.7897 34.54V41H37.9897V34.8C37.9897 33.7067 37.7164 32.8733 37.1697 32.3C36.623 31.7133 35.8764 31.42 34.9297 31.42C33.9697 31.42 33.203 31.72 32.6297 32.32C32.0697 32.92 31.7897 33.7933 31.7897 34.94V41H29.9697V30.04H31.7897V31.6C32.1497 31.04 32.6364 30.6067 33.2497 30.3C33.8764 29.9933 34.563 29.84 35.3097 29.84ZM47.2827 29.86C48.2293 29.86 49.056 30.0667 49.7627 30.48C50.4827 30.8933 51.016 31.4133 51.3627 32.04V30.04H53.2027V41.24C53.2027 42.24 52.9893 43.1267 52.5627 43.9C52.136 44.6867 51.5227 45.3 50.7227 45.74C49.936 46.18 49.016 46.4 47.9627 46.4C46.5227 46.4 45.3227 46.06 44.3627 45.38C43.4027 44.7 42.836 43.7733 42.6627 42.6H44.4627C44.6627 43.2667 45.076 43.8 45.7027 44.2C46.3293 44.6133 47.0827 44.82 47.9627 44.82C48.9627 44.82 49.776 44.5067 50.4027 43.88C51.0427 43.2533 51.3627 42.3733 51.3627 41.24V38.94C51.0027 39.58 50.4693 40.1133 49.7627 40.54C49.056 40.9667 48.2293 41.18 47.2827 41.18C46.3093 41.18 45.4227 40.94 44.6227 40.46C43.836 39.98 43.216 39.3067 42.7627 38.44C42.3093 37.5733 42.0827 36.5867 42.0827 35.48C42.0827 34.36 42.3093 33.38 42.7627 32.54C43.216 31.6867 43.836 31.0267 44.6227 30.56C45.4227 30.0933 46.3093 29.86 47.2827 29.86ZM51.3627 35.5C51.3627 34.6733 51.196 33.9533 50.8627 33.34C50.5293 32.7267 50.076 32.26 49.5027 31.94C48.9427 31.6067 48.3227 31.44 47.6427 31.44C46.9627 31.44 46.3427 31.6 45.7827 31.92C45.2227 32.24 44.776 32.7067 44.4427 33.32C44.1093 33.9333 43.9427 34.6533 43.9427 35.48C43.9427 36.32 44.1093 37.0533 44.4427 37.68C44.776 38.2933 45.2227 38.7667 45.7827 39.1C46.3427 39.42 46.9627 39.58 47.6427 39.58C48.3227 39.58 48.9427 39.42 49.5027 39.1C50.076 38.7667 50.5293 38.2933 50.8627 37.68C51.196 37.0533 51.3627 36.3267 51.3627 35.5ZM58.0983 26.2V41H56.2783V26.2H58.0983ZM62.1402 28.26C61.7935 28.26 61.5002 28.14 61.2602 27.9C61.0202 27.66 60.9002 27.3667 60.9002 27.02C60.9002 26.6733 61.0202 26.38 61.2602 26.14C61.5002 25.9 61.7935 25.78 62.1402 25.78C62.4735 25.78 62.7535 25.9 62.9802 26.14C63.2202 26.38 63.3402 26.6733 63.3402 27.02C63.3402 27.3667 63.2202 27.66 62.9802 27.9C62.7535 28.14 62.4735 28.26 62.1402 28.26ZM63.0202 30.04V41H61.2002V30.04H63.0202ZM70.002 41.18C69.162 41.18 68.4087 41.04 67.742 40.76C67.0754 40.4667 66.5487 40.0667 66.162 39.56C65.7754 39.04 65.562 38.4467 65.522 37.78H67.402C67.4554 38.3267 67.7087 38.7733 68.162 39.12C68.6287 39.4667 69.2354 39.64 69.982 39.64C70.6754 39.64 71.222 39.4867 71.622 39.18C72.022 38.8733 72.222 38.4867 72.222 38.02C72.222 37.54 72.0087 37.1867 71.582 36.96C71.1554 36.72 70.4954 36.4867 69.602 36.26C68.7887 36.0467 68.122 35.8333 67.602 35.62C67.0954 35.3933 66.6554 35.0667 66.282 34.64C65.922 34.2 65.742 33.6267 65.742 32.92C65.742 32.36 65.9087 31.8467 66.242 31.38C66.5754 30.9133 67.0487 30.5467 67.662 30.28C68.2754 30 68.9754 29.86 69.762 29.86C70.9754 29.86 71.9554 30.1667 72.702 30.78C73.4487 31.3933 73.8487 32.2333 73.902 33.3H72.082C72.042 32.7267 71.8087 32.2667 71.382 31.92C70.9687 31.5733 70.4087 31.4 69.702 31.4C69.0487 31.4 68.5287 31.54 68.142 31.82C67.7554 32.1 67.562 32.4667 67.562 32.92C67.562 33.28 67.6754 33.58 67.902 33.82C68.142 34.0467 68.4354 34.2333 68.782 34.38C69.142 34.5133 69.6354 34.6667 70.262 34.84C71.0487 35.0533 71.6887 35.2667 72.182 35.48C72.6754 35.68 73.0954 35.9867 73.442 36.4C73.802 36.8133 73.9887 37.3533 74.002 38.02C74.002 38.62 73.8354 39.16 73.502 39.64C73.1687 40.12 72.6954 40.5 72.082 40.78C71.482 41.0467 70.7887 41.18 70.002 41.18ZM82.0113 29.84C82.8379 29.84 83.5846 30.02 84.2513 30.38C84.9179 30.7267 85.4379 31.2533 85.8113 31.96C86.1979 32.6667 86.3913 33.5267 86.3913 34.54V41H84.5913V34.8C84.5913 33.7067 84.3179 32.8733 83.7713 32.3C83.2246 31.7133 82.4779 31.42 81.5313 31.42C80.5713 31.42 79.8046 31.72 79.2313 32.32C78.6713 32.92 78.3913 33.7933 78.3913 34.94V41H76.5713V26.2H78.3913V31.6C78.7513 31.04 79.2446 30.6067 79.8713 30.3C80.5113 29.9933 81.2246 29.84 82.0113 29.84Z" fill="white"/>
<defs>
<filter id="filter0_d" x="0.25" y="0.25" width="106.5" height="83.5" filterUnits="userSpaceOnUse" color-interpolation-filters="sRGB">
<feFlood flood-opacity="0" result="BackgroundImageFix"/>
<feColorMatrix in="SourceAlpha" type="matrix" values="0 0 0 0 0 0 0 0 0 0 0 0 0 0 0 0 0 0 127 0" result="hardAlpha"/>
<feOffset dx="2" dy="3"/>
<feGaussianBlur stdDeviation="6"/>
<feColorMatrix type="matrix" values="0 0 0 0 0.648547 0 0 0 0 0.933333 0 0 0 0 0.404444 0 0 0 1 0"/>
<feBlend mode="normal" in2="BackgroundImageFix" result="effect1_dropShadow"/>
<feBlend mode="normal" in="SourceGraphic" in2="effect1_dropShadow" result="shape"/>
</filter>
</defs>
</svg>
