<svg width="64" height="64" viewBox="0 0 64 64" fill="none" xmlns="http://www.w3.org/2000/svg">
<path d="M62 32C62 48.6 48.6 62 32 62C15.4 62 2 48.6 2 32C2 17.6 12.1 5.6 25.7 2.7H26.5L27.1 2.4C27.6 2.3 28.1 2.3 28.6 2.2H29.6L30.4 2H30.8L32 2.2L32.8 2H33.2L34.8 2.4L36.7 2.3C36.9 2.3 37.2 2.4 37.4 2.4L44.6 7L52.4 10C58.3 15.5 62 23.3 62 32Z" fill="#008DB3"/>
<path d="M33.5 11.5C35.5 12.1 35.4 10.9 36.6 12.3C37.3 13.1 38.6 14.6 40.1 15C40.3 15.1 40.8 14.6 40.8 14.2C40.8 13.8 39.7 13.1 39.1 12.9C38.5 12.7 39.3 11.6 38.5 11.3C37.7 11 36.8 9.69996 36.5 8.69996C36.2 7.69996 34.8 8.49996 34.3 8.29996C33.8 8.09996 33.2 8.19996 32.7 8.99996C32.2 9.79996 33 11.3 33.5 11.5Z" fill="#FFC942"/>
<path d="M44 39.7001C44 39.3001 40.1 37.2001 39.7 37.1001C38.9 37.1001 37.9 36.7001 37.2 37.1001C36.9 37.3001 36.6 37.5001 36.5 37.8001C36.4 38.0001 35.6 37.6001 35.3 37.7001C34.6 38.1001 34.2 36.9001 34.4 36.4001C34.9 35.3001 33.2 36.0001 33 35.7001C33.2 36.1001 32.9 32.5001 32.3 34.5001C31.8 36.0001 30.1 34.3001 30.3 33.2001C30.6 31.5001 33.2 31.2001 33.8 31.5001C34.1 31.7001 35.1 33.2001 35.3 33.1001C35.6 33.0001 35.1 31.3001 35.1 31.1001C34.9 30.3001 36.5 30.0001 36.6 29.1001C36.7 28.4001 37.2 28.6001 37.7 28.2001C38.4 27.6001 37.9 26.6001 38.8 26.0001C39.1 25.8001 40.3 25.7001 40.4 25.3001C40.5 25.0001 39.4 24.2001 40.4 23.9001C41.3 23.7001 42.2 24.1001 42.4 22.8001C42.6 21.7001 41.3 21.4001 41 20.5001C40.9 20.2001 40.7 18.7001 40.2 19.0001C39.5 19.4001 39.1 20.2001 38.6 19.2001C37.6 17.4001 35.2 16.6001 36.3 19.5001C36.9 21.0001 34.7 25.5001 34.4 21.3001C34.3 19.9001 30 19.4001 31.4 17.8001C32.9 16.2001 34.9 16.1001 35.4 13.6001C36.2 10.1001 33.8 13.1001 32.5 12.4001C30.7 11.4001 32.2 11.9001 31.3 13.2001C30.9 13.7001 29.8 12.9001 29.2 13.0001C28.7 13.1001 27.5 14.1001 27.1 13.5001C26.5 12.3001 22.2 11.5001 21 12.0001C18.6 12.9001 17.7 11.7001 15.3 11.2001C14.5 11.0001 10.3 10.9001 10.6 12.3001C10.7 12.9001 11.1 13.3001 11.3 13.8001C11.6 14.6001 10.4 14.0001 10.1 14.2001C10 14.3001 11.5 15.3001 11.6 15.4001C12 15.8001 10.1 16.3001 9.9 17.0001C9.5 18.4001 12.5 18.0001 12 19.6001C11.8 20.1001 10.1 20.9001 9.9 22.6001C9.9 22.9001 12 20.5001 13.4 21.0001C14.6 21.4001 14.5 18.1001 16.1 18.1001C19 18.1001 19.5 20.9001 21 22.8001C21.7 23.7001 22.3 24.0001 22.4 25.2001C22.5 26.3001 22.3 27.6001 22.7 28.6001C23.1 29.6001 23.8 29.6001 24.3 30.4001C24.9 31.3001 25.2 32.2001 26 33.0001C27.2 34.2001 29.1 35.9001 30.9 35.7001C31.3 35.6001 32.6 36.4001 32.9 36.6001C33.4 37.0001 33.6 37.5001 34 38.0001C34.3 38.4001 35.3 38.2001 35.8 38.4001C36.2 38.6001 34.8 41.6001 35.3 42.4001C35.9 43.3001 35.9 44.2001 36.8 44.9001C37.6 45.5001 37.9 45.6001 38 46.7001C38.2 48.5001 37.6 50.4001 37.2 52.1001C37 53.0001 37.4 54.0001 37.1 54.8001C36.7 55.8001 36.4 56.7001 36.8 57.9001C37.4 59.9001 41.1 60.2001 38.9 58.5001C38 57.8001 39.9 55.9001 39.3 55.8001C38.3 55.4001 39.5 55.0001 39.6 54.5001C39.9 53.6001 43.9 50.0001 44.2 49.4001C44.5 48.9001 44.3 48.4001 44.7 47.9001C45.2 47.4001 45.8 47.6001 46.3 47.2001C47.4 46.5001 47 45.3001 47.4 44.3001C48.3 42.3001 48.6 43.1001 47.4 41.6001C47 41.1001 44.1 41.3001 44 39.7001Z" fill="#FFC942"/>
<path d="M22.4 10.1C23.1 10.9 23.9 9.70002 24 10.1C24.1 10.5 24.1 11.3 25 11.3C25.9 11.3 24.2 11.9 24.7 12.2C25.3 12.4 26.5 13.2 26.9 12.9C27.3 12.6 27.9 12.3 28.1 12.6C28.3 12.8 29.5 12.6 29.2 12.2C28.9 11.8 27.9 10.8 28 10.3C28 9.70002 29.1 8.30002 27.9 8.50002C27.2 8.40002 27 9.10002 27 9.50002C27 9.90002 25.9 8.90002 25.7 8.90002C25.5 8.90002 24.7 7.70002 24.4 7.70002C24.1 7.70002 22.2 7.10002 22.4 7.70002C22.6 8.30002 21.7 9.30002 22.4 10.1Z" fill="#FFC942"/>
<path d="M39.4 15.9C38.8 15.6 37.7 14.1 37.3 14.6C36.8 15.1 37.4 16.2 37.8 16.7C38.2 17.2 39.9 18.2 39.7 17.8C39.5 17.4 40.5 16.5 39.4 15.9Z" fill="#FFC942"/>
<path d="M23.5 5.60002C23.8 5.60002 24.3 6.60002 24.7 6.70002C25.1 6.80002 25.3 7.30002 25.5 7.40002C25.7 7.50002 27.5 6.80002 27.9 6.70002C28.4 6.50002 27.4 5.50002 27 4.80002C26.7 4.10002 27 6.00002 26.4 5.70002C25.8 5.40002 26 5.00002 25.4 5.00002C24.8 5.00002 25.2 3.70002 24.4 4.00002C23.6 4.30002 23.2 5.60002 23.5 5.60002Z" fill="#FFC942"/>
<path d="M30 8C29.5 8.1 29.6 8.5 29.3 8.8C29 9.1 29 9.5 29.3 9.9C29.6 10.3 30 10.9 30.3 10.3C30.6 9.7 30.3 9.2 30.3 8.8C30.3 8.4 30.3 7.9 30 8Z" fill="#FFC942"/>
<path d="M31.1 9.90007C31.2 10.2001 31.5 9.30007 32 8.90007C32.5 8.40007 31.7 7.30007 31.3 7.90007C30.9 8.20007 31 9.60007 31.1 9.90007Z" fill="#FFC942"/>
<path d="M31 10.3C30.7 10.7 30.5 11.7 31 11.8C31.5 11.9 31.8 11.3 31.6 10.9C31.4 10.5 31.1 10.1 31 10.3Z" fill="#FFC942"/>
<path d="M33 3.50002C32.5 3.70002 33.7 4.10002 32.9 4.30002C32.1 4.50002 32.1 5.20002 31.4 4.60002C30.7 4.00002 29.9 4.80002 30.5 5.10002C31.1 5.40002 31.9 6.30002 31.9 6.70002C31.9 7.20002 32.7 7.40002 33.5 7.30002C34.3 7.20002 35.3 7.50002 35.3 7.10002C35.3 6.70002 35.4 6.60002 35.3 6.30002C35.2 5.90002 34.8 5.50002 34 5.90002C33.2 6.20002 32.6 6.10002 32.5 5.70002C32.4 5.30002 34.1 4.50002 34.9 5.10002C35.7 5.60002 36.4 4.80002 35.8 4.40002C35.2 4.00002 35.6 3.60002 36 3.60002C36.3 3.60002 36.5 2.80002 36.7 2.30002C35.5 2.10002 34.3 2.00002 33.1 1.90002C33.2 2.80002 33.5 3.30002 33 3.50002Z" fill="#FFC942"/>
<path d="M25.9 2.80002C26.4 3.00002 27.3 2.80002 27.2 2.40002L25.7 2.70002C25.7 2.70002 25.8 2.80002 25.9 2.80002Z" fill="#FFC942"/>
<path d="M26.2 3.20004C25.4 2.80004 25.5 3.80004 25.8 4.10004C26.1 4.40004 27.2 3.70004 26.2 3.20004Z" fill="#FFC942"/>
<path d="M30.8 2C31.4 2.1 31.7 2.5 31.8 2.9C32 3.2 32.8 2.5 32.8 2H30.8Z" fill="#FFC942"/>
<path d="M29.2 3.09998C28.9 3.59998 29.2 4.09998 29.6 3.69998C30 3.19998 29.7 1.99998 30 2.59998C30.3 3.09998 30.9 3.89998 31.3 3.99998C31.7 3.99998 31.4 3.49998 31.3 3.09998C31.3 2.69998 30.3 2.29998 30.4 2.09998C29.8 2.09998 29.2 2.19998 28.6 2.19998C29 2.49998 29.5 2.79998 29.2 3.09998Z" fill="#FFC942"/>
<path d="M31 7.20007C31.5 7.40007 31 6.20007 31 6.20007C30.5 6.50007 30.5 7.00007 31 7.20007Z" fill="#FFC942"/>
<path d="M29.3 6.40002C29.4 6.70002 29.9 6.80002 30.2 6.40002C30.5 6.00002 30.2 4.40002 29.8 4.90002C29.4 5.40002 29 5.20002 28.2 4.90002C27.4 4.60002 29.2 6.10002 29.3 6.40002Z" fill="#FFC942"/>
<path d="M34.6 34C35.3 33.9 35.7 34.7 36.4 34.7C37.1 34.7 38.3 35.8 38.9 35.1C39.4 34.6 36.6 34.1 35.7 33.6C34.7 33.1 33.9 34.1 34.6 34Z" fill="#FFC942"/>
<path d="M37.9 3.6C38.8 4 38.7 4 38.1 4.5C37.5 5 37.7 5.9 39 5.8C40.3 5.7 41 4.5 41.6 6.2C42.2 8 41.8 9.9 42.5 10.4C43.2 10.9 42.6 11.3 42.5 11.8C42.4 12.3 42.7 12.7 43.3 12.5C43.9 12.3 43.7 13.4 43.3 13.8C42.9 14.2 42.4 15.1 43.7 16.6C45 18.1 45.1 17.9 45.5 18.5C45.9 19 46.2 18.3 46.3 17.7C46.4 17.1 45.9 15 47.4 15C48.8 15 49.2 13.9 49.4 13.5C49.6 13.1 50.7 13.2 51.3 12.7C51.8 12.2 52.4 11.8 52.5 10C48.4 6.2 43.3 3.6 37.6 2.5C37.4 2.9 37.4 3.4 37.9 3.6Z" fill="#FFC942"/>
</svg>
