<svg width="71" height="71" viewBox="0 0 71 71" fill="none" xmlns="http://www.w3.org/2000/svg">
<circle cx="35.5" cy="35.5" r="35.5" fill="#C6EBC9"/>
<path d="M52.3501 55.2809C50.8718 55.3659 49.3991 55.0371 48.0973 54.3314C46.7955 53.6258 45.7162 52.5713 44.9805 51.2862C44.2448 50.0012 43.8818 48.5365 43.9323 47.0567C43.9829 45.5768 44.4449 44.1403 45.2666 42.9084L50.8036 34.6673C50.974 34.4137 51.2043 34.2059 51.474 34.0622C51.7437 33.9185 52.0445 33.8434 52.3501 33.8434C52.6557 33.8434 52.9566 33.9185 53.2263 34.0622C53.496 34.2059 53.7262 34.4137 53.8967 34.6673L59.3326 42.7477C60.2318 44.0781 60.7313 45.6381 60.772 47.2434C60.7174 49.4249 59.8003 51.4957 58.2217 53.0023C56.6431 54.5088 54.5317 55.3282 52.3501 55.2809ZM52.3501 37.8553L47.8544 44.5423C47.3253 45.3113 47.0262 46.2151 46.9922 47.1479C46.9582 48.0807 47.1907 49.0038 47.6624 49.8093C48.1342 50.6147 48.8256 51.2691 49.6558 51.6958C50.486 52.1224 51.4206 52.3037 52.3501 52.2184C53.7197 52.2661 55.0523 51.7694 56.0567 50.8371C57.061 49.9048 57.6553 48.6127 57.7095 47.2434C57.674 46.2167 57.3387 45.2229 56.7448 44.3846L52.3501 37.8553Z" fill="#3143DF"/>
<path d="M31.8438 36.5V28.8438H33.375C34.9988 28.8417 36.5556 28.1958 37.7038 27.0475C38.852 25.8993 39.498 24.3426 39.5 22.7188V18.125H34.9062C33.3382 18.1276 31.8316 18.7347 30.6999 19.8201C29.907 18.3804 28.7425 17.1796 27.3278 16.3428C25.9131 15.5061 24.2999 15.0639 22.6562 15.0625H18.0625V19.6562C18.0653 22.0921 19.0342 24.4273 20.7566 26.1497C22.479 27.872 24.8142 28.8409 27.25 28.8438H28.7812V36.5H18.0625V39.5625H39.5V36.5H31.8438ZM34.9062 21.1875H36.4375V22.7188C36.4367 23.5307 36.1138 24.3092 35.5396 24.8834C34.9655 25.4575 34.187 25.7804 33.375 25.7812H31.8438V24.25C31.8446 23.438 32.1675 22.6595 32.7416 22.0854C33.3158 21.5112 34.0943 21.1883 34.9062 21.1875ZM27.25 25.7812C25.6262 25.7792 24.0694 25.1333 22.9212 23.985C21.773 22.8368 21.127 21.2801 21.125 19.6562V18.125H22.6562C24.2801 18.127 25.8368 18.773 26.985 19.9212C28.1333 21.0694 28.7792 22.6262 28.7812 24.25V25.7812H27.25Z" fill="black"/>
<path d="M18.0625 44.1562H39.5V47.2188H18.0625V44.1562Z" fill="black"/>
<path d="M18.0625 51.8125H39.5V54.875H18.0625V51.8125Z" fill="black"/>
</svg>
