<svg width="70" height="70" viewBox="0 0 70 70" fill="none" xmlns="http://www.w3.org/2000/svg">
<circle cx="35" cy="35" r="35" fill="#C6EBC9"/>
<path d="M41.7889 21.3999C42.3432 20.7914 43.6471 20.0234 45.5011 19.2026C47.3003 18.4048 49.4547 17.6232 51.5402 16.9336C53.6548 16.2385 55.7869 15.5937 57.9345 15C57.5389 17.2143 57.1015 19.4214 56.6222 21.6203C56.1535 23.7486 55.6187 25.9365 55.0615 27.7403C54.826 28.5277 54.5492 29.303 54.2321 30.0633C53.95 30.7164 53.71 31.114 53.5402 31.3019C53.2497 31.6224 52.6139 31.8834 51.5192 31.9537C50.468 32.0213 49.2161 31.8996 47.9782 31.69C46.88 31.4989 45.7923 31.2552 44.7193 30.9598C44.3762 30.8667 44.0347 30.7684 43.6948 30.6651L43.6892 30.6637C43.5685 30.4609 43.3986 30.1648 43.2036 29.8024C42.7059 28.8852 42.2713 27.9375 41.9025 26.9655C41.4927 25.8635 41.191 24.7249 41.1461 23.7094C41.1011 22.6899 41.3173 21.9205 41.7889 21.3999V21.3999Z" stroke="#7FCD91" stroke-width="1.5"/>
<path d="M52.35 20.6157C52.35 20.6157 42.7671 28.5719 39.6443 37.4639" stroke="#7FCD91" stroke-width="2" stroke-linecap="round" stroke-linejoin="round"/>
<path d="M34.735 25.6782C34.3659 25.2671 33.4494 24.7127 32.0712 24.0961C30.7477 23.5025 29.159 22.9197 27.6151 22.4059C26.1872 21.9313 24.7483 21.4881 23.2994 21.0767L23.3528 21.3728C23.5605 22.5087 23.8538 24.042 24.1991 25.6322C24.5471 27.2251 24.9429 28.8585 25.3527 30.2026C25.5576 30.8747 25.7625 31.4574 25.959 31.9199C26.1667 32.4053 26.3309 32.6717 26.4278 32.7799C26.5709 32.9381 26.9471 33.126 27.7386 33.1774C28.4853 33.2261 29.3891 33.1396 30.2986 32.9841C31.329 32.8038 32.3462 32.5599 33.3441 32.2539C33.8353 31.4048 34.2558 30.5195 34.6016 29.6063C34.902 28.7909 35.1167 27.962 35.149 27.2359C35.1813 26.503 35.0241 26 34.735 25.6782Z" stroke="#7FCD91" stroke-width="1.5"/>
<path d="M27.8972 25.8013C27.8972 25.8013 34.1975 30.9044 35.9883 36.9027" stroke="#7FCD91" stroke-width="2" stroke-linecap="round" stroke-linejoin="round"/>
<path d="M22.2651 41.2324H20.8616V43.1416L22.7296 42.5088L22.2651 41.2324ZM31.041 39.5002L31.3428 38.1791L31.3175 38.1737L31.2936 38.1697L31.041 39.5002ZM39.0647 41.2013L39.4857 39.9113L39.4268 39.8937L39.3664 39.8802L39.0647 41.2013ZM42.4485 45.0915L43.2541 46.1989L42.4485 45.0901V45.0915ZM40.2759 45.8947L40.3489 44.5439H40.3208L40.2927 44.5425L40.2759 45.8947ZM33.7989 45.8203L33.8157 44.4681L33.5518 47.1522L33.7989 45.8203ZM55.9892 47.401L56.9843 48.3543L55.9878 47.401H55.9892ZM42.9509 53.8428L42.4766 52.5704L42.9509 53.8415V53.8428ZM22.2651 51.5806L22.2174 50.2285L20.8616 50.2731V51.5806H22.2651ZM22.2651 54.1579V55.5101H23.6686V54.1579H22.2651ZM15.4035 54.1579H14V55.5101H15.4035V54.1579ZM15.4035 39.2839V37.9317H14V39.2839H15.4035ZM22.2651 39.2839H23.6686V37.9317H22.2651V39.2839ZM26.5808 38.2657C25.9338 38.5442 23.5422 39.3677 21.7991 39.9559L22.7296 42.5088C24.4012 41.9436 26.9429 41.0714 27.726 40.7348L26.5808 38.2657ZM31.041 39.5002L31.2936 38.1697H31.2908H31.288L31.2796 38.167L31.2515 38.1629L31.1491 38.1453C30.6448 38.0659 30.1372 38.0073 29.6277 37.9695C29.139 37.9309 28.6481 37.9228 28.1583 37.9452C27.6853 37.9709 27.0972 38.0426 26.5808 38.2657L27.7274 40.7348C27.7751 40.7131 27.9562 40.6644 28.3169 40.6442C28.6495 40.6266 29.0326 40.6374 29.4144 40.6658C29.8738 40.7004 30.3313 40.755 30.7856 40.8294H30.7884L31.041 39.5002ZM39.3664 39.8815L31.3428 38.1791L30.7393 40.8199L38.763 42.5223L39.3664 39.8815ZM42.9509 40.4576C42.1509 40.4576 41.2864 40.325 40.5959 40.1831C40.2264 40.1065 39.8598 40.0172 39.497 39.9153L39.4857 39.9113H39.4843L39.0633 41.2013L38.6423 42.4912H38.6437L38.6479 42.4926C38.6502 42.4934 38.6526 42.4943 38.6549 42.4953L38.6773 42.5021C38.7969 42.5371 38.9172 42.57 39.038 42.6008C39.2766 42.6643 39.6107 42.7455 40.0078 42.8279C40.791 42.9902 41.8703 43.1619 42.9509 43.1619V40.4576ZM43.2541 46.1989C44.1551 45.5905 44.9411 44.5033 45.2302 43.4892C45.3705 42.9929 45.4702 42.2411 45.0688 41.5447C44.6014 40.7348 43.7397 40.4576 42.9495 40.4576V43.1619C43.0351 43.1619 43.0029 43.1754 42.9116 43.1335C42.7871 43.0731 42.6844 42.9779 42.6169 42.8604C42.4934 42.6481 42.5846 42.5561 42.5229 42.7738C42.4737 42.9496 42.3545 43.193 42.1734 43.4432C41.991 43.6947 41.7945 43.8813 41.6429 43.9841L43.2541 46.1989ZM40.2759 45.8947C40.2029 47.2442 40.2057 47.2455 40.2057 47.2455H40.2156C40.2305 47.2463 40.2455 47.2463 40.2605 47.2455C40.3612 47.2479 40.462 47.2443 40.5622 47.2347C40.7376 47.2212 40.9664 47.1874 41.2373 47.1211C41.9619 46.9338 42.6453 46.6214 43.2541 46.1989L41.6429 43.9841C41.1587 44.3113 40.7727 44.4452 40.544 44.5006C40.4289 44.529 40.3503 44.5385 40.3152 44.5412L40.297 44.5425C40.311 44.5422 40.325 44.5422 40.3391 44.5425L40.3433 44.5439H40.3475L40.2773 45.8947H40.2759ZM33.782 47.1725L40.2591 47.2469L40.2927 44.5425L33.8157 44.4681L33.782 47.1725ZM41.6555 45.5634C40.6717 45.5093 38.7994 45.247 37.1083 44.986C36.1067 44.8315 35.1065 44.6692 34.1076 44.4992L34.0613 44.4925C34.0576 44.4915 34.0538 44.4906 34.0501 44.4898H34.0473H34.0459L33.7989 45.8203L33.5518 47.1509L33.5561 47.1522L33.5701 47.1549L33.6178 47.163L33.8017 47.1941C34.7547 47.3558 35.7091 47.51 36.6648 47.6566C38.3265 47.9135 40.3419 48.1988 41.4885 48.2651L41.6541 45.5648L41.6555 45.5634ZM46.0484 44.2004C45.0014 44.6061 44.0667 44.9685 43.2611 45.2254C42.4134 45.4945 41.9039 45.5783 41.6541 45.5634L41.4885 48.2637C42.318 48.3111 43.2751 48.0677 44.1411 47.7932C45.0491 47.5038 46.0737 47.1063 47.0968 46.7101L46.0484 44.2004ZM52.5044 42.1762C50.4006 42.5048 48.0203 43.4351 46.0484 44.2004L47.0968 46.7101C49.1571 45.9109 51.223 45.1172 52.9535 44.8454L52.5044 42.1762ZM56.9843 48.3543C58.0973 47.2753 58.2615 45.4958 57.5317 44.1463C56.7036 42.6184 54.9015 41.8016 52.5044 42.1762L52.9535 44.8454C54.444 44.6128 54.8987 45.1321 55.0419 45.3984C55.2833 45.842 55.1345 46.3112 54.9928 46.4477L56.9843 48.3543ZM43.4253 55.1153C44.3937 54.7799 47.4126 53.4358 50.2827 52.0593C51.6547 51.407 53.0117 50.7258 54.3528 50.0162C54.9366 49.7025 55.4643 49.4063 55.8938 49.1426C56.2924 48.8979 56.7064 48.6234 56.9843 48.3543L54.9928 46.4477C54.9956 46.445 54.9843 46.4572 54.9521 46.4815C54.9226 46.5059 54.8805 46.537 54.8258 46.5762C54.6824 46.6752 54.5359 46.7699 54.3865 46.8602C54.0216 47.0846 53.5472 47.3524 52.9872 47.6525C51.6841 48.3428 50.3654 49.0056 49.0322 49.6403C46.1354 51.0276 43.2639 52.2973 42.4766 52.5704L43.4253 55.1153ZM37.8998 55.3276C39.6752 55.4966 41.6906 55.7156 43.4253 55.1153L42.4752 52.5704C41.4604 52.922 40.1524 52.8247 38.1749 52.6367L37.8998 55.3276ZM36.3279 55.1923C36.8584 55.2288 37.3777 55.2789 37.8998 55.3276L38.1749 52.6367C37.6584 52.588 37.1054 52.5353 36.5356 52.4947L36.3279 55.191V55.1923ZM30.4909 53.9754C32.1484 54.473 33.9603 55.022 36.3279 55.1923L36.5356 52.4947C34.5216 52.35 32.9848 51.8916 31.3273 51.394L30.4909 53.9767V53.9754ZM24.9682 52.8841C27.1169 52.9653 28.7169 53.4426 30.4909 53.9754L31.3273 51.3927C29.5477 50.8586 27.6348 50.2798 25.0791 50.1825L24.9668 52.8841H24.9682ZM22.3128 52.9315C23.444 52.8936 24.5401 52.8679 24.9682 52.8841L25.0791 50.1825C24.5233 50.1608 23.3065 50.1933 22.216 50.2285L22.3142 52.9315H22.3128ZM20.8616 51.5793V54.1579H23.6686V51.5806H20.8616V51.5793ZM22.2651 52.8057H15.4035V55.5101H22.2651V52.8057ZM16.807 54.1579V39.2839H14V54.1579H16.807ZM15.4035 40.636H22.2651V37.9317H15.4035V40.636ZM20.8616 39.2839V41.2324H23.6686V39.2839H20.8616Z" fill="#52993A"/>
</svg>
