<svg width="70" height="70" viewBox="0 0 70 70" fill="none" xmlns="http://www.w3.org/2000/svg">
<circle cx="35" cy="35" r="35" fill="#C6EBC9"/>
<path d="M52.6216 33.4809H46.0922C46.1889 32.4199 46.2373 31.1177 46.2373 29.5745L51.8235 25.4511C52.1621 25.2099 52.3556 24.8603 52.4039 24.4021C52.4523 23.944 52.3556 23.5702 52.1137 23.2809C51.9203 22.9433 51.5938 22.7504 51.1343 22.7021C50.6748 22.6539 50.2758 22.7504 49.9373 22.9915L45.9471 26.0298C45.415 23.7149 44.1696 21.7979 42.2108 20.2787C40.252 18.7596 38.0392 18 35.5725 18C33.1059 18 30.8931 18.7596 28.9343 20.2787C26.9755 21.7979 25.6817 23.7149 25.0529 26.0298L20.9902 22.9915C20.7 22.7504 20.3252 22.6539 19.8657 22.7021C19.4062 22.7504 19.0797 22.9433 18.8863 23.2809C18.6444 23.5702 18.5477 23.944 18.5961 24.4021C18.6444 24.8603 18.8379 25.2099 19.1765 25.4511L24.7627 29.5745C24.7627 29.9121 24.7869 30.5149 24.8353 31.383C24.8837 32.2511 24.9078 32.9504 24.9078 33.4809H18.5235C17.5078 33.4809 17 33.9872 17 35C17 36.0128 17.5078 36.5191 18.5235 36.5191H24.7627C24.9562 36.5191 25.1497 36.4709 25.3431 36.3745C25.3915 36.6156 25.6575 38.0624 26.1412 40.7149L20.5549 46.2851C19.8778 46.9603 19.8778 47.6837 20.5549 48.4553C20.8451 48.7447 21.2078 48.8894 21.6431 48.8894C22.0784 48.8894 22.4412 48.7447 22.7314 48.4553L27.0843 44.1149C28.9222 49.3716 31.7516 52 35.5725 52C39.2967 52 42.0778 49.3716 43.9157 44.1149L48.2686 48.4553C48.5588 48.7447 48.9216 48.8894 49.3569 48.8894C49.7922 48.8894 50.1549 48.7447 50.4451 48.4553C51.1222 47.6837 51.1222 46.9603 50.4451 46.2851L44.8588 40.7149C45.2941 38.5929 45.5601 37.1461 45.6569 36.3745C45.7052 36.3745 45.7899 36.3986 45.9108 36.4468C46.0317 36.495 46.1405 36.5191 46.2373 36.5191H52.4765C53.4922 36.5191 54 36.0128 54 35C54 33.9872 53.5405 33.4809 52.6216 33.4809ZM35.5725 48.8894C32.8641 48.8894 30.7601 46.1163 29.2608 40.5702C28.9706 39.6057 28.5353 37.3872 27.9549 33.9149C29.7928 32.5645 32.332 31.8894 35.5725 31.8894C39.0065 31.8894 41.4732 32.5645 42.9725 33.9149C42.5373 38.0142 41.715 41.5348 40.5059 44.4766C39.2967 47.4184 37.6523 48.8894 35.5725 48.8894ZM43.3353 30.3702C41.1105 29.3574 38.5229 28.8511 35.5725 28.8511C32.6222 28.8511 30.0346 29.3574 27.8098 30.3702V28.8511C27.8098 26.6326 28.632 24.7759 30.2765 23.2809L31.0745 24.9447C31.3647 25.4752 31.8242 25.7404 32.4529 25.7404C32.7915 25.7404 33.0092 25.6922 33.1059 25.5957C33.4928 25.4511 33.7467 25.1738 33.8676 24.7638C33.9886 24.3539 33.9281 23.956 33.6863 23.5702L32.8157 21.7617C33.5412 21.3277 34.4601 21.1106 35.5725 21.1106C36.5882 21.1106 37.4588 21.2553 38.1843 21.5447L37.2412 23.4255C36.9026 24.3418 37.1203 25.017 37.8941 25.4511C38.0876 25.644 38.3536 25.7404 38.6922 25.7404C39.3209 25.7404 39.7804 25.427 40.0706 24.8L40.8686 23.1362C42.5131 24.7759 43.3353 26.6809 43.3353 28.8511V30.3702Z" fill="#F54748"/>
</svg>
