<svg width="71" height="71" viewBox="0 0 71 71" fill="none" xmlns="http://www.w3.org/2000/svg">
<circle cx="35.5" cy="35.5" r="35.5" fill="#C6EBC9"/>
<path d="M54 33H61V37H54V33Z" fill="#FFC942"/>
<path d="M49 25.9991L53 22L55 23.9995L51 28L49 25.9991Z" fill="#FFB300"/>
<path d="M49 45.6667L50.9991 44L55 47.3333L52.9995 49L49 45.6667Z" fill="#FFC942"/>
<path d="M39 18H43V23H39V18Z" fill="#FFC942"/>
<path d="M40.7143 27C40.1396 27.0033 39.5662 27.0484 39 27.135V30.213C39.5587 30.0782 40.1348 30.0066 40.7143 30C42.5329 30 44.2771 30.6321 45.563 31.7574C46.849 32.8826 47.5714 34.4087 47.5714 36C47.5714 37.5913 46.849 39.1174 45.563 40.2426C44.2771 41.3679 42.5329 42 40.7143 42V45C43.4422 45 46.0584 44.0518 47.9874 42.364C49.9163 40.6761 51 38.3869 51 36C51 33.6131 49.9163 31.3239 47.9874 29.636C46.0584 27.9482 43.4422 27 40.7143 27Z" fill="#F5CA1A"/>
<path d="M26.5 44.4164V44.7721L26.836 44.8887C27.7272 45.1981 28.4762 45.806 28.9522 46.6028C29.4281 47.3993 29.6014 48.3343 29.4426 49.2429C29.2839 50.1516 28.8027 50.9778 28.0817 51.5746C27.3605 52.1716 26.4461 52.5 25.5 52.5C24.5539 52.5 23.6395 52.1716 22.9183 51.5746C22.1973 50.9778 21.7161 50.1516 21.5574 49.2429C21.3986 48.3343 21.5719 47.3993 22.0478 46.6028C22.5238 45.806 23.2728 45.1981 24.164 44.8887L24.5 44.7721V44.4164V25.5H26.5V44.4164Z" fill="black" stroke="black"/>
<path d="M25 60C22.638 60.0023 20.3278 59.3939 18.3596 58.2511C16.3914 57.1083 14.8528 55.4821 13.9372 53.5767C13.0216 51.6712 12.7697 49.5716 13.2131 47.5413C13.6566 45.511 14.7756 43.6406 16.4296 42.165V25.5C16.4296 23.5109 17.3326 21.6032 18.9398 20.1967C20.5471 18.7902 22.727 18 25 18C27.273 18 29.4529 18.7902 31.0602 20.1967C32.6674 21.6032 33.5704 23.5109 33.5704 25.5V42.165C35.2244 43.6406 36.3434 45.511 36.7869 47.5413C37.2303 49.5716 36.9784 51.6712 36.0628 53.5767C35.1471 55.4821 33.6086 57.1083 31.6404 58.2511C29.6722 59.3939 27.362 60.0023 25 60ZM25 21C23.6366 21.0012 22.3295 21.4757 21.3654 22.3193C20.4013 23.163 19.8591 24.3069 19.8578 25.5V43.4745L19.2887 43.923C17.9944 44.9354 17.0819 46.2678 16.672 47.7441C16.2621 49.2203 16.3741 50.7706 16.9933 52.1899C17.6124 53.6091 18.7095 54.8304 20.1392 55.692C21.569 56.5536 23.264 57.0149 25 57.0149C26.736 57.0149 28.431 56.5536 29.8608 55.692C31.2905 54.8304 32.3876 53.6091 33.0067 52.1899C33.6259 50.7706 33.7379 49.2203 33.328 47.7441C32.9181 46.2678 32.0056 44.9354 30.7113 43.923L30.1422 43.4745V25.5C30.1409 24.3069 29.5986 23.163 28.6346 22.3193C27.6705 21.4757 26.3634 21.0012 25 21Z" fill="black"/>
</svg>
