<svg width="48" height="48" viewBox="0 0 48 48" fill="none" xmlns="http://www.w3.org/2000/svg">
<path fill-rule="evenodd" clip-rule="evenodd" d="M19.5 11.911C20.5609 11.911 21.5783 11.4896 22.3284 10.7394C23.0786 9.98929 23.5 8.97188 23.5 7.91101C23.5 6.85014 23.0786 5.83273 22.3284 5.08258C21.5783 4.33244 20.5609 3.91101 19.5 3.91101C18.4391 3.91101 17.4217 4.33244 16.6716 5.08258C15.9214 5.83273 15.5 6.85014 15.5 7.91101C15.5 8.97188 15.9214 9.98929 16.6716 10.7394C17.4217 11.4896 18.4391 11.911 19.5 11.911ZM17.064 13.42C17.027 13.42 16.991 13.42 16.954 13.422H9.144V8.91201H7.429V13.422H5.5C5.10218 13.422 4.72064 13.58 4.43934 13.8614C4.15804 14.1427 4 14.5242 4 14.922C4 15.3198 4.15804 15.7014 4.43934 15.9827C4.72064 16.264 5.10218 16.422 5.5 16.422H7.429V34.746C6.46101 34.9437 5.59102 35.4698 4.96619 36.2351C4.34137 37.0004 4.00006 37.958 4 38.946V44.089H5.714V38.089H7.43V44.089H9.144V38.089H10.858V44.089H12.573V38.946C12.5727 37.9579 12.2312 37.0003 11.6062 36.235C10.9812 35.4697 10.1111 34.9437 9.143 34.746V16.422H14.084V42.304C14.0856 42.7371 14.2584 43.1519 14.5647 43.458C14.871 43.7642 15.2859 43.9367 15.719 43.938C16.1519 43.9364 16.5666 43.7638 16.8727 43.4577C17.1788 43.1516 17.3514 42.7369 17.353 42.304V30.13H21.623V42.303C21.6246 42.7359 21.7972 43.1506 22.1033 43.4567C22.4094 43.7628 22.8241 43.9354 23.257 43.937C23.6899 43.9354 24.1046 43.7628 24.4107 43.4567C24.7168 43.1506 24.8894 42.7359 24.891 42.303V24.155C25.791 24.155 28.567 22.444 28.567 18.23C28.567 15.054 25.791 13.42 24.892 13.42H17.065H17.064ZM36.377 14.218L37 15L37.623 14.218H37.625L37.627 14.221L37.634 14.226L37.656 14.245C37.7688 14.3374 37.8789 14.4331 37.986 14.532C38.194 14.722 38.472 14.992 38.754 15.315C39.034 15.635 39.334 16.028 39.567 16.462C39.797 16.889 40 17.42 40 18C40 18.58 39.798 19.111 39.567 19.538C39.3386 19.9488 39.066 20.3334 38.754 20.685C38.5171 20.9554 38.2654 21.2125 38 21.455V23.517C38.253 23.112 38.607 22.685 39.098 22.402C39.6 22.112 40.162 22.021 40.646 22.007C41.116 21.9996 41.5855 22.0435 42.046 22.138C42.5384 22.2355 43.0225 22.3709 43.494 22.543L43.522 22.553L43.549 22.563L43.557 22.567L43.56 22.568H43.562L43.196 23.5L44.186 23.648H44.185V23.653L44.183 23.662L44.178 23.69C44.1546 23.8341 44.1269 23.9775 44.095 24.12C44.035 24.394 43.939 24.77 43.8 25.176C43.6518 25.6221 43.4553 26.0506 43.214 26.454C42.959 26.867 42.6 27.308 42.098 27.598C41.596 27.888 41.035 27.978 40.55 27.992C40.08 27.9998 39.6105 27.9562 39.15 27.862C38.7915 27.7906 38.4373 27.6991 38.089 27.588L38.034 27.571L38 27.56V30.517C38.253 30.112 38.607 29.685 39.098 29.402C39.6 29.112 40.162 29.021 40.646 29.007C41.116 28.9996 41.5855 29.0435 42.046 29.138C42.5482 29.2377 43.0417 29.3768 43.522 29.554L43.549 29.564L43.557 29.567L43.56 29.568H43.562L43.196 30.5L44.186 30.648H44.185V30.653L44.183 30.662L44.178 30.69C44.1546 30.8341 44.1269 30.9775 44.095 31.12C44.035 31.394 43.939 31.77 43.8 32.176C43.6518 32.6221 43.4553 33.0506 43.214 33.454C42.959 33.867 42.6 34.308 42.098 34.598C41.596 34.888 41.035 34.978 40.55 34.992C40.08 34.9998 39.6105 34.9562 39.15 34.862C38.7609 34.7848 38.3768 34.6839 38 34.56V37.517C38.253 37.112 38.607 36.685 39.098 36.402C39.6 36.112 40.162 36.021 40.646 36.007C41.116 35.9996 41.5855 36.0435 42.046 36.138C42.5482 36.2377 43.0417 36.3768 43.522 36.554L43.549 36.564L43.557 36.567L43.56 36.568H43.562L43.196 37.5L44.186 37.648H44.185V37.653L44.183 37.662L44.178 37.69L44.172 37.73L44.162 37.787C44.0759 38.2582 43.9552 38.7225 43.801 39.176C43.6525 39.6221 43.4556 40.0507 43.214 40.454C42.959 40.867 42.6 41.308 42.098 41.598C41.596 41.888 41.035 41.978 40.55 41.992C40.08 41.9998 39.6105 41.9562 39.15 41.862C38.7609 41.7848 38.3768 41.6839 38 41.56V44C38 44.2652 37.8946 44.5196 37.7071 44.7071C37.5196 44.8947 37.2652 45 37 45C36.7348 45 36.4804 44.8947 36.2929 44.7071C36.1054 44.5196 36 44.2652 36 44V41.622C35.6863 41.7182 35.3679 41.7983 35.046 41.862C34.5855 41.9562 34.116 41.9998 33.646 41.992C33.162 41.978 32.6 41.888 32.098 41.598C31.596 41.308 31.237 40.867 30.983 40.454C30.7414 40.0506 30.5446 39.6221 30.396 39.176C30.2312 38.6914 30.1048 38.1945 30.018 37.69L30.013 37.662L30.012 37.653V37.649C30.012 37.648 30.011 37.648 31 37.499L30.634 36.569H30.636L30.639 36.567L30.647 36.564L30.674 36.554C30.8109 36.5023 30.9493 36.4546 31.089 36.411C31.356 36.326 31.729 36.221 32.149 36.138C32.6095 36.0439 33.079 36.0003 33.549 36.008C34.035 36.021 34.596 36.112 35.099 36.402C35.473 36.618 35.769 36.919 36 37.23V34.622C35.6863 34.7182 35.3679 34.7983 35.046 34.862C34.5855 34.9562 34.116 34.9998 33.646 34.992C33.162 34.978 32.6 34.888 32.098 34.598C31.596 34.308 31.237 33.867 30.983 33.454C30.7414 33.0506 30.5446 32.6221 30.396 32.176C30.2312 31.6914 30.1048 31.1945 30.018 30.69L30.013 30.662L30.012 30.653V30.649C30.012 30.648 30.011 30.648 31 30.499L30.634 29.569H30.636L30.639 29.567L30.647 29.564L30.674 29.554C30.8109 29.5023 30.9493 29.4546 31.089 29.411C31.356 29.326 31.729 29.221 32.149 29.138C32.6095 29.0439 33.079 29.0003 33.549 29.008C34.035 29.021 34.596 29.112 35.099 29.402C35.473 29.618 35.769 29.919 36 30.23V27.622C35.6863 27.7182 35.3679 27.7983 35.046 27.862C34.5855 27.9562 34.116 27.9998 33.646 27.992C33.162 27.978 32.6 27.888 32.098 27.598C31.596 27.308 31.237 26.867 30.983 26.454C30.7414 26.0506 30.5446 25.6221 30.396 25.176C30.2312 24.6914 30.1048 24.1945 30.018 23.69L30.013 23.662L30.012 23.653V23.649C30.012 23.648 30.011 23.648 31 23.499L30.634 22.569H30.636L30.639 22.567L30.647 22.564L30.674 22.554C30.8109 22.5023 30.9493 22.4546 31.089 22.411C31.356 22.326 31.729 22.221 32.149 22.138C32.6095 22.0439 33.079 22.0003 33.549 22.008C34.035 22.021 34.596 22.112 35.099 22.402C35.473 22.618 35.769 22.919 36 23.23V21.456C35.7346 21.2131 35.4829 20.9558 35.246 20.685C34.9341 20.3334 34.6614 19.9488 34.433 19.538C34.203 19.11 34 18.58 34 18C34 17.42 34.202 16.889 34.433 16.462C34.667 16.028 34.967 15.636 35.246 15.315C35.5834 14.9301 35.9505 14.5723 36.344 14.245L36.366 14.227L36.373 14.221L36.376 14.219V14.218H36.377ZM31 23.5L30.011 23.648C29.9774 23.4242 30.0208 23.1956 30.1339 22.9996C30.2471 22.8036 30.4234 22.6518 30.634 22.569L31 23.499V23.5ZM31 30.5L30.011 30.648C29.9774 30.4242 30.0208 30.1956 30.1339 29.9996C30.2471 29.8036 30.4234 29.6518 30.634 29.569L31 30.499V30.5ZM31 37.5L30.011 37.648C29.9774 37.4242 30.0208 37.1956 30.1339 36.9996C30.2471 36.8036 30.4234 36.6518 30.634 36.569L31 37.499V37.5ZM43.196 37.5L43.562 36.57C43.7724 36.6528 43.9486 36.8044 44.0617 37.0002C44.1749 37.196 44.2183 37.4244 44.185 37.648L43.196 37.5ZM43.196 30.5L43.562 29.57C43.7724 29.6528 43.9486 29.8044 44.0617 30.0002C44.1749 30.196 44.2183 30.4244 44.185 30.648L43.196 30.5ZM43.196 23.5L43.562 22.57C43.7724 22.6528 43.9486 22.8044 44.0617 23.0002C44.1749 23.196 44.2183 23.4244 44.185 23.648L43.196 23.5ZM37 15L36.377 14.218C36.554 14.077 36.7737 14.0002 37 14.0002C37.2263 14.0002 37.446 14.077 37.623 14.218L37 15Z" fill="#70AF85"/>
</svg>
