<svg width="107" height="84" viewBox="0 0 107 84" fill="none" xmlns="http://www.w3.org/2000/svg">
<g filter="url(#filter0_d)">
<path d="M92 48.6667C92 50.3758 91.0518 52.015 89.364 53.2236C87.6761 54.4321 85.3869 55.1111 83 55.1111H29L11 68V16.4444C11 14.7353 11.9482 13.0961 13.636 11.8875C15.3239 10.679 17.6131 10 20 10H83C85.3869 10 87.6761 10.679 89.364 11.8875C91.0518 13.0961 92 14.7353 92 16.4444V48.6667Z" fill="#DAF7DE" stroke="#5C913B" stroke-width="1.5" stroke-linecap="round" stroke-linejoin="round"/>
</g>
<path d="M42.44 21.08C43.5867 21.08 44.6333 21.2733 45.58 21.66C46.54 22.0333 47.3067 22.6133 47.88 23.4C48.4533 24.1733 48.74 25.1267 48.74 26.26V26.6H47.1V26.28C47.1 25.3733 46.8667 24.6333 46.4 24.06C45.9333 23.4867 45.3467 23.08 44.64 22.84C43.9333 22.5867 43.2 22.46 42.44 22.46C41.16 22.46 40.06 22.74 39.14 23.3C38.2333 23.8467 37.7733 24.8133 37.76 26.2H40.4V27.6H37.78V41H36.1V27.6H33.46V26.2H36.1C36.1267 24.4533 36.7333 23.1667 37.92 22.34C39.1067 21.5 40.6133 21.08 42.44 21.08ZM45.6389 31.16C45.0122 31.16 44.4989 31.2933 44.0989 31.56C43.6989 31.8133 43.4989 32.22 43.4989 32.78C43.4989 33.1933 43.6256 33.54 43.8789 33.82C44.1322 34.1 44.4789 34.3 44.9189 34.42C45.2922 34.3533 45.6656 34.32 46.0389 34.32C47.3322 34.32 48.3456 34.64 49.0789 35.28C49.8256 35.9067 50.2789 36.6867 50.4389 37.62H48.8389C48.7056 37.1 48.3922 36.6467 47.8989 36.26C47.4189 35.86 46.7856 35.66 45.9989 35.66C45.0656 35.66 44.3322 35.9467 43.7989 36.52C43.2789 37.0933 43.0189 37.8133 43.0189 38.68C43.0189 39.56 43.2789 40.28 43.7989 40.84C44.3322 41.4 45.0656 41.68 45.9989 41.68C46.7722 41.68 47.3989 41.4867 47.8789 41.1C48.3722 40.7267 48.6922 40.28 48.8389 39.76H50.4389C50.3456 40.36 50.1056 40.9133 49.7189 41.42C49.3456 41.9267 48.8389 42.3267 48.1989 42.62C47.5722 42.9267 46.8389 43.08 45.9989 43.08C45.0389 43.08 44.2056 42.8867 43.4989 42.5C42.8056 42.1133 42.2789 41.5867 41.9189 40.92C41.5589 40.2533 41.3789 39.5 41.3789 38.66C41.3789 37.82 41.5656 37.0733 41.9389 36.42C42.3256 35.7667 42.8589 35.26 43.5389 34.9C43.0322 34.6867 42.6256 34.3733 42.3189 33.96C42.0122 33.5467 41.8589 33.0533 41.8589 32.48C41.8589 31.6533 42.1522 31.0267 42.7389 30.6C43.3389 30.16 44.1256 29.94 45.0989 29.94H47.7189V27.6H39.3389V26.2H52.1189V27.6H49.2989V31.16H45.6389ZM52.3261 23.18C52.3261 23.4867 52.2128 23.7533 51.9861 23.98C51.7728 24.1933 51.5128 24.3 51.2061 24.3C50.8861 24.3 50.6128 24.1933 50.3861 23.98C50.1728 23.7533 50.0661 23.4867 50.0661 23.18C50.0661 22.8733 50.1728 22.6133 50.3861 22.4C50.6128 22.1733 50.8861 22.06 51.2061 22.06C51.5128 22.06 51.7728 22.1733 51.9861 22.4C52.2128 22.6133 52.3261 22.8733 52.3261 23.18ZM58.4577 31.24C57.3643 31.24 56.4643 31.5267 55.7577 32.1C55.051 32.6733 54.6977 33.4867 54.6977 34.54C54.6977 35.4867 54.9777 36.2467 55.5377 36.82C56.111 37.3933 56.8777 37.68 57.8377 37.68C58.3043 37.68 58.751 37.58 59.1777 37.38C59.6177 37.18 59.9777 36.88 60.2577 36.48C60.5377 36.0667 60.6777 35.56 60.6777 34.96H62.2177V41.32H60.5777V37.48C60.2977 37.9467 59.871 38.32 59.2977 38.6C58.7377 38.88 58.1043 39.02 57.3977 39.02C56.5443 39.02 55.7843 38.84 55.1177 38.48C54.451 38.12 53.931 37.6 53.5577 36.92C53.1843 36.24 52.9977 35.4267 52.9977 34.48C52.9977 33.4667 53.231 32.6133 53.6977 31.92C54.1643 31.2133 54.7977 30.6867 55.5977 30.34C56.411 29.98 57.3177 29.8 58.3177 29.8H59.7577V27.6H51.0577V26.2H64.3177L64.2977 27.6H61.4177V31.24H58.4577ZM70.1852 26.2V27.6H67.5652V41H65.8852V27.6H63.2452V26.2H65.9252V25.36C65.9252 24.5333 65.7652 23.8467 65.4452 23.3C65.1252 22.7533 64.5785 22.48 63.8052 22.48C63.0185 22.48 62.4652 22.7533 62.1452 23.3C61.8118 23.8467 61.6452 24.5333 61.6452 25.36V26.6H60.0052V25.44C60.0052 24.12 60.3118 23.0667 60.9252 22.28C61.5252 21.48 62.4852 21.08 63.8052 21.08C65.1385 21.08 66.0985 21.4733 66.6852 22.26C67.2718 23.0467 67.5652 24.1067 67.5652 25.44V26.2H70.1852Z" fill="#4C504D"/>
<defs>
<filter id="filter0_d" x="0.25" y="0.25" width="106.5" height="83.5" filterUnits="userSpaceOnUse" color-interpolation-filters="sRGB">
<feFlood flood-opacity="0" result="BackgroundImageFix"/>
<feColorMatrix in="SourceAlpha" type="matrix" values="0 0 0 0 0 0 0 0 0 0 0 0 0 0 0 0 0 0 127 0" result="hardAlpha"/>
<feOffset dx="2" dy="3"/>
<feGaussianBlur stdDeviation="6"/>
<feColorMatrix type="matrix" values="0 0 0 0 0.705882 0 0 0 0 0.945098 0 0 0 0 0.529412 0 0 0 0.35 0"/>
<feBlend mode="normal" in2="BackgroundImageFix" result="effect1_dropShadow"/>
<feBlend mode="normal" in="SourceGraphic" in2="effect1_dropShadow" result="shape"/>
</filter>
</defs>
</svg>
