<svg width="107" height="84" viewBox="0 0 107 84" fill="none" xmlns="http://www.w3.org/2000/svg">
<g filter="url(#filter0_d)">
<path d="M92 48.6667C92 50.3758 91.0518 52.015 89.364 53.2236C87.6761 54.4321 85.3869 55.1111 83 55.1111H29L11 68V16.4444C11 14.7353 11.9482 13.0961 13.636 11.8875C15.3239 10.679 17.6131 10 20 10H83C85.3869 10 87.6761 10.679 89.364 11.8875C91.0518 13.0961 92 14.7353 92 16.4444V48.6667Z" fill="#5EB216" stroke="#5C913B" stroke-width="1.5" stroke-linecap="round" stroke-linejoin="round"/>
</g>
<path d="M43.608 21.08C44.7546 21.08 45.8013 21.2733 46.748 21.66C47.708 22.0333 48.4746 22.6133 49.048 23.4C49.6213 24.1733 49.908 25.1267 49.908 26.26V26.6H48.268V26.28C48.268 25.3733 48.0346 24.6333 47.568 24.06C47.1013 23.4867 46.5146 23.08 45.808 22.84C45.1013 22.5867 44.368 22.46 43.608 22.46C42.328 22.46 41.228 22.74 40.308 23.3C39.4013 23.8467 38.9413 24.8133 38.928 26.2H41.568V27.6H38.948V41H37.268V27.6H34.628V26.2H37.268C37.2946 24.4533 37.9013 23.1667 39.088 22.34C40.2746 21.5 41.7813 21.08 43.608 21.08ZM46.8069 31.16C46.1802 31.16 45.6669 31.2933 45.2669 31.56C44.8669 31.8133 44.6669 32.22 44.6669 32.78C44.6669 33.1933 44.7935 33.54 45.0469 33.82C45.3002 34.1 45.6469 34.3 46.0869 34.42C46.4602 34.3533 46.8335 34.32 47.2069 34.32C48.5002 34.32 49.5135 34.64 50.2469 35.28C50.9935 35.9067 51.4469 36.6867 51.6069 37.62H50.0069C49.8735 37.1 49.5602 36.6467 49.0669 36.26C48.5869 35.86 47.9535 35.66 47.1669 35.66C46.2335 35.66 45.5002 35.9467 44.9669 36.52C44.4469 37.0933 44.1869 37.8133 44.1869 38.68C44.1869 39.56 44.4469 40.28 44.9669 40.84C45.5002 41.4 46.2335 41.68 47.1669 41.68C47.9402 41.68 48.5669 41.4867 49.0469 41.1C49.5402 40.7267 49.8602 40.28 50.0069 39.76H51.6069C51.5135 40.36 51.2735 40.9133 50.8869 41.42C50.5135 41.9267 50.0069 42.3267 49.3669 42.62C48.7402 42.9267 48.0069 43.08 47.1669 43.08C46.2069 43.08 45.3735 42.8867 44.6669 42.5C43.9735 42.1133 43.4469 41.5867 43.0869 40.92C42.7269 40.2533 42.5469 39.5 42.5469 38.66C42.5469 37.82 42.7335 37.0733 43.1069 36.42C43.4935 35.7667 44.0269 35.26 44.7069 34.9C44.2002 34.6867 43.7935 34.3733 43.4869 33.96C43.1802 33.5467 43.0269 33.0533 43.0269 32.48C43.0269 31.6533 43.3202 31.0267 43.9069 30.6C44.5069 30.16 45.2935 29.94 46.2669 29.94H48.8869V27.6H40.5069V26.2H53.2869V27.6H50.4669V31.16H46.8069ZM53.4941 23.18C53.4941 23.4867 53.3807 23.7533 53.1541 23.98C52.9407 24.1933 52.6807 24.3 52.3741 24.3C52.0541 24.3 51.7807 24.1933 51.5541 23.98C51.3407 23.7533 51.2341 23.4867 51.2341 23.18C51.2341 22.8733 51.3407 22.6133 51.5541 22.4C51.7807 22.1733 52.0541 22.06 52.3741 22.06C52.6807 22.06 52.9407 22.1733 53.1541 22.4C53.3807 22.6133 53.4941 22.8733 53.4941 23.18ZM59.6256 31.24C58.5323 31.24 57.6323 31.5267 56.9256 32.1C56.219 32.6733 55.8656 33.4867 55.8656 34.54C55.8656 35.4867 56.1456 36.2467 56.7056 36.82C57.279 37.3933 58.0456 37.68 59.0056 37.68C59.4723 37.68 59.919 37.58 60.3456 37.38C60.7856 37.18 61.1456 36.88 61.4256 36.48C61.7056 36.0667 61.8456 35.56 61.8456 34.96H63.3856V41.32H61.7456V37.48C61.4656 37.9467 61.039 38.32 60.4656 38.6C59.9056 38.88 59.2723 39.02 58.5656 39.02C57.7123 39.02 56.9523 38.84 56.2856 38.48C55.619 38.12 55.099 37.6 54.7256 36.92C54.3523 36.24 54.1656 35.4267 54.1656 34.48C54.1656 33.4667 54.399 32.6133 54.8656 31.92C55.3323 31.2133 55.9656 30.6867 56.7656 30.34C57.579 29.98 58.4856 29.8 59.4856 29.8H60.9256V27.6H52.2256V26.2H65.4856L65.4656 27.6H62.5856V31.24H59.6256ZM71.3531 26.2V27.6H68.7331V41H67.0531V27.6H64.4131V26.2H67.0931V25.36C67.0931 24.5333 66.9331 23.8467 66.6131 23.3C66.2931 22.7533 65.7465 22.48 64.9731 22.48C64.1865 22.48 63.6331 22.7533 63.3131 23.3C62.9798 23.8467 62.8131 24.5333 62.8131 25.36V26.6H61.1731V25.44C61.1731 24.12 61.4798 23.0667 62.0931 22.28C62.6931 21.48 63.6531 21.08 64.9731 21.08C66.3065 21.08 67.2665 21.4733 67.8531 22.26C68.4398 23.0467 68.7331 24.1067 68.7331 25.44V26.2H71.3531Z" fill="white"/>
<defs>
<filter id="filter0_d" x="0.25" y="0.25" width="106.5" height="83.5" filterUnits="userSpaceOnUse" color-interpolation-filters="sRGB">
<feFlood flood-opacity="0" result="BackgroundImageFix"/>
<feColorMatrix in="SourceAlpha" type="matrix" values="0 0 0 0 0 0 0 0 0 0 0 0 0 0 0 0 0 0 127 0" result="hardAlpha"/>
<feOffset dx="2" dy="3"/>
<feGaussianBlur stdDeviation="6"/>
<feColorMatrix type="matrix" values="0 0 0 0 0.648547 0 0 0 0 0.933333 0 0 0 0 0.404444 0 0 0 1 0"/>
<feBlend mode="normal" in2="BackgroundImageFix" result="effect1_dropShadow"/>
<feBlend mode="normal" in="SourceGraphic" in2="effect1_dropShadow" result="shape"/>
</filter>
</defs>
</svg>
