<svg width="34" height="39" viewBox="0 0 34 39" fill="none" xmlns="http://www.w3.org/2000/svg">
<g clip-path="url(#clip0)">
<path d="M17 27.3001L7.93336 16.9M17 39.0001V18.2V39.0001ZM17 19.5V27.3001V19.5ZM17 19.5C17 16.7418 16.0448 14.0965 14.3445 12.1461C12.6441 10.1958 10.338 9.10005 7.93336 9.10005H1.13336V16.9C1.13336 19.6583 2.0886 22.3036 3.78893 24.254C5.48926 26.2043 7.7954 27.3001 10.2 27.3001H17V19.5ZM17 19.5H23.8C26.2047 19.5 28.5108 18.4043 30.2111 16.454C31.9115 14.5036 32.8667 11.8583 32.8667 9.10005V1.30005H26.0667C23.6621 1.30005 21.3559 2.39576 19.6556 4.34614C17.9553 6.29652 17 8.9418 17 11.7V19.5ZM17 19.5L26.0667 9.10005L17 19.5Z" stroke="#5B7F32"/>
</g>
<defs>
<clipPath id="clip0">
<rect width="34" height="39" fill="white"/>
</clipPath>
</defs>
</svg>
