<svg width="20" height="18" viewBox="0 0 20 18" fill="none" xmlns="http://www.w3.org/2000/svg">
<path d="M19.2549 8.19574H15.7255C15.7778 7.63404 15.8039 6.94468 15.8039 6.12766L18.8235 3.94468C19.0065 3.81702 19.1111 3.63192 19.1373 3.38936C19.1634 3.14681 19.1111 2.94894 18.9804 2.79574C18.8758 2.61702 18.6993 2.51489 18.451 2.48936C18.2026 2.46383 17.9869 2.51489 17.8039 2.64255L15.6471 4.25106C15.3595 3.02553 14.6863 2.01064 13.6275 1.20638C12.5686 0.402128 11.3725 0 10.0392 0C8.70588 0 7.5098 0.402128 6.45098 1.20638C5.39216 2.01064 4.69281 3.02553 4.35294 4.25106L2.15686 2.64255C2 2.51489 1.79739 2.46383 1.54902 2.48936C1.30065 2.51489 1.12418 2.61702 1.01961 2.79574C0.888889 2.94894 0.836601 3.14681 0.862745 3.38936C0.888889 3.63192 0.993464 3.81702 1.17647 3.94468L4.19608 6.12766C4.19608 6.30638 4.20915 6.62553 4.23529 7.08511C4.26144 7.54468 4.27451 7.91489 4.27451 8.19574H0.823529C0.27451 8.19574 0 8.46383 0 9C0 9.53617 0.27451 9.80426 0.823529 9.80426H4.19608C4.30065 9.80426 4.40523 9.77872 4.5098 9.72766C4.53595 9.85532 4.67974 10.6213 4.94118 12.0255L1.92157 14.9745C1.55556 15.3319 1.55556 15.7149 1.92157 16.1234C2.07843 16.2766 2.27451 16.3532 2.5098 16.3532C2.7451 16.3532 2.94118 16.2766 3.09804 16.1234L5.45098 13.8255C6.44444 16.6085 7.97386 18 10.0392 18C12.0523 18 13.5556 16.6085 14.549 13.8255L16.902 16.1234C17.0588 16.2766 17.2549 16.3532 17.4902 16.3532C17.7255 16.3532 17.9216 16.2766 18.0784 16.1234C18.4444 15.7149 18.4444 15.3319 18.0784 14.9745L15.0588 12.0255C15.2941 10.9021 15.4379 10.1362 15.4902 9.72766C15.5163 9.72766 15.5621 9.74043 15.6275 9.76596C15.6928 9.79149 15.7516 9.80426 15.8039 9.80426H19.1765C19.7255 9.80426 20 9.53617 20 9C20 8.46383 19.7516 8.19574 19.2549 8.19574ZM10.0392 16.3532C8.57516 16.3532 7.43791 14.8851 6.62745 11.9489C6.47059 11.4383 6.23529 10.2638 5.92157 8.42553C6.91503 7.71064 8.28758 7.35319 10.0392 7.35319C11.8954 7.35319 13.2288 7.71064 14.0392 8.42553C13.8039 10.5957 13.3595 12.4596 12.7059 14.017C12.0523 15.5745 11.1634 16.3532 10.0392 16.3532ZM14.2353 6.54894C13.0327 6.01277 11.634 5.74468 10.0392 5.74468C8.44444 5.74468 7.04575 6.01277 5.84314 6.54894V5.74468C5.84314 4.57021 6.28758 3.58723 7.17647 2.79574L7.60784 3.6766C7.76471 3.95745 8.01307 4.09787 8.35294 4.09787C8.53595 4.09787 8.65359 4.07234 8.70588 4.02128C8.91503 3.94468 9.05229 3.79787 9.11765 3.58085C9.18301 3.36383 9.15033 3.15319 9.01961 2.94894L8.54902 1.99149C8.94118 1.7617 9.43791 1.64681 10.0392 1.64681C10.5882 1.64681 11.0588 1.7234 11.451 1.8766L10.9412 2.87234C10.7582 3.35745 10.8758 3.71489 11.2941 3.94468C11.3987 4.04681 11.5425 4.09787 11.7255 4.09787C12.0654 4.09787 12.3137 3.93192 12.4706 3.6L12.902 2.71915C13.7909 3.58723 14.2353 4.59574 14.2353 5.74468V6.54894Z" fill="#F54748"/>
</svg>
