<svg width="64" height="64" viewBox="0 0 64 64" fill="none" xmlns="http://www.w3.org/2000/svg">
<g clip-path="url(#clip0)">
<path d="M64 4.1C64 2.1 61.9 0 59.7 0H32.3C30.1 0 28 2.1 28 4.1V59.8C28 61.9 30.1 63.9 32.3 63.9H59.8C61.9 63.9 64.1 61.8 64.1 59.8V4.1H64Z" fill="#5C6D6D"/>
<path d="M63 59C63 61 61 63 59 63H33C31 63 29 61 29 59V5C29 3 31 1 33 1H59C61 1 63 3 63 5V59Z" fill="#212528"/>
<path d="M57.5 5.5C58.0523 5.5 58.5 5.05228 58.5 4.5C58.5 3.94772 58.0523 3.5 57.5 3.5C56.9477 3.5 56.5 3.94772 56.5 4.5C56.5 5.05228 56.9477 5.5 57.5 5.5Z" fill="#94989B"/>
<path d="M49 4.5C49 4.8 48.9 5 48.7 5H43.3C43.1 5 43 4.8 43 4.5C43 4.3 43.1 4 43.3 4H48.7C48.9 4 49 4.3 49 4.5Z" fill="#94989B"/>
<path d="M31 8H61V56H31V8Z" fill="#3E4347"/>
<path d="M49.7999 60.2C49.7999 60.6 49.5 61 49 61H43C42.6 61 42.2 60.7 42.2 60.2V58.7C42.2 58.3 42.5 57.9 43 57.9H49C49.4 57.9 49.7999 58.2 49.7999 58.7V60.2Z" fill="#94989B"/>
<path d="M38 14.7C38 15.2 37.6 15.5 37.2 15.5H33.9C33.4 15.5 33.1 15.1 33.1 14.7V11.4C33.1 10.9 33.5 10.6 33.9 10.6H37.2C37.7 10.6 38 11 38 11.4V14.7Z" fill="#42ADE2"/>
<path d="M45 14.7C45 15.2 44.6 15.5 44.2 15.5H40.9C40.4 15.5 40.1 15.1 40.1 14.7V11.4C40.1 10.9 40.5 10.6 40.9 10.6H44.2C44.7 10.6 45 11 45 11.4V14.7Z" fill="#C7E755"/>
<path d="M52 14.7C52 15.2 51.6 15.5 51.2 15.5H47.9C47.4 15.5 47.1 15.1 47.1 14.7V11.4C47.1 10.9 47.5 10.6 47.9 10.6H51.2C51.7 10.6 52 11 52 11.4V14.7Z" fill="#F2B200"/>
<path d="M59 14.7C59 15.2 58.6 15.5 58.2 15.5H54.9C54.4 15.5 54.1 15.1 54.1 14.7V11.4C54.1 10.9 54.5 10.6 54.9 10.6H58.2C58.7 10.6 59 11 59 11.4V14.7Z" fill="#42ADE2"/>
<path d="M38 53.2C38 53.7 37.6 54 37.2 54H33.9C33.4 54 33.1 53.6 33.1 53.2V49.9C33.1 49.4 33.5 49.1 33.9 49.1H37.2C37.7 49.1 38 49.5 38 49.9V53.2Z" fill="#C7E755"/>
<path d="M45 53.2C45 53.7 44.6 54 44.2 54H40.9C40.4 54 40.1 53.6 40.1 53.2V49.9C40.1 49.4 40.5 49.1 40.9 49.1H44.2C44.7 49.1 45 49.5 45 49.9V53.2Z" fill="#FF435E"/>
<path d="M52 53.2C52 53.7 51.6 54 51.2 54H47.9C47.4 54 47.1 53.6 47.1 53.2V49.9C47.1 49.4 47.5 49.1 47.9 49.1H51.2C51.7 49.1 52 49.5 52 49.9V53.2Z" fill="#42ADE2"/>
<path d="M59 53.2C59 53.7 58.6 54 58.2 54H54.9C54.4 54 54.1 53.6 54.1 53.2V49.9C54.1 49.4 54.5 49.1 54.9 49.1H58.2C58.7 49.1 59 49.5 59 49.9V53.2Z" fill="#C28FEF"/>
<path d="M38 33.9001C38 34.4001 37.6 34.7001 37.2 34.7001H33.9C33.4 34.7001 33.1 34.3001 33.1 33.9001V30.6C33.1 30.1 33.5 29.8 33.9 29.8H37.2C37.7 29.8 38 30.2 38 30.6V33.9001Z" fill="#C7E755"/>
<path d="M45 33.9001C45 34.4001 44.6 34.7001 44.2 34.7001H40.9C40.4 34.7001 40.1 34.3001 40.1 33.9001V30.6C40.1 30.1 40.5 29.8 40.9 29.8H44.2C44.7 29.8 45 30.2 45 30.6V33.9001Z" fill="#C28FEF"/>
<path d="M52 33.9001C52 34.4001 51.6 34.7001 51.2 34.7001H47.9C47.4 34.7001 47.1 34.3001 47.1 33.9001V30.6C47.1 30.1 47.5 29.8 47.9 29.8H51.2C51.7 29.8 52 30.2 52 30.6V33.9001Z" fill="#42ADE2"/>
<path d="M38 27.5C38 28 37.6 28.3 37.2 28.3H33.9C33.4 28.3 33.1 27.9 33.1 27.5V24.2C33.1 23.7 33.5 23.4 33.9 23.4H37.2C37.7 23.4 38 23.8 38 24.2V27.5Z" fill="#FF435E"/>
<path d="M45 27.5C45 28 44.6 28.3 44.2 28.3H40.9C40.4 28.3 40.1 27.9 40.1 27.5V24.2C40.1 23.7 40.5 23.4 40.9 23.4H44.2C44.7 23.4 45 23.8 45 24.2V27.5Z" fill="#F2B200"/>
<path d="M52 27.5C52 28 51.6 28.3 51.2 28.3H47.9C47.4 28.3 47.1 27.9 47.1 27.5V24.2C47.1 23.7 47.5 23.4 47.9 23.4H51.2C51.7 23.4 52 23.8 52 24.2V27.5Z" fill="#C7E755"/>
<path d="M59 27.5C59 28 58.6 28.3 58.2 28.3H54.9C54.4 28.3 54.1 27.9 54.1 27.5V24.2C54.1 23.7 54.5 23.4 54.9 23.4H58.2C58.7 23.4 59 23.8 59 24.2V27.5Z" fill="#F2B200"/>
<path d="M38 21.1C38 21.6 37.6 21.9 37.2 21.9H33.9C33.4 21.9 33.1 21.5 33.1 21.1V17.8C33.1 17.3 33.5 17 33.9 17H37.2C37.7 17 38 17.4 38 17.8V21.1Z" fill="#C28FEF"/>
<path d="M45 21.1C45 21.6 44.6 21.9 44.2 21.9H40.9C40.4 21.9 40.1 21.5 40.1 21.1V17.8C40.1 17.3 40.5 17 40.9 17H44.2C44.7 17 45 17.4 45 17.8V21.1Z" fill="#42ADE2"/>
<path d="M52 21.1C52 21.6 51.6 21.9 51.2 21.9H47.9C47.4 21.9 47.1 21.5 47.1 21.1V17.8C47.1 17.3 47.5 17 47.9 17H51.2C51.7 17 52 17.4 52 17.8V21.1Z" fill="#FF435E"/>
<path d="M59 21.1C59 21.6 58.6 21.9 58.2 21.9H54.9C54.4 21.9 54.1 21.5 54.1 21.1V17.8C54.1 17.3 54.5 17 54.9 17H58.2C58.7 17 59 17.4 59 17.8V21.1Z" fill="#C28FEF"/>
<path d="M36 32L16.9 12.9V21.9H0V42.1H16.9V51.1L36 32Z" fill="#F2B200"/>
</g>
<defs>
<clipPath id="clip0">
<rect width="64" height="64" fill="white"/>
</clipPath>
</defs>
</svg>
