<svg width="111" height="112" viewBox="0 0 111 112" fill="none" xmlns="http://www.w3.org/2000/svg">
<circle cx="55.5" cy="55.5" r="55.5" fill="#77B255"/>
<path d="M92.2071 86.9513C90.4888 81.0203 74.6566 75.894 54.9974 75.4193C35.3381 74.9446 19.4445 79.3048 17.4317 85.1457C16.816 86.9649 16.1042 89.9022 15.4099 93.1633C25.0518 103.514 38.8043 110.123 54.2079 110.495C69.6115 110.867 83.6785 104.907 93.8257 95.0568C93.3151 91.7666 92.7544 88.7763 92.2071 86.9513Z" fill="#334D5C"/>
<path d="M55.1316 71.8639L45.6961 73.3391L46.7593 75.6308L54.8582 81.8888L63.3906 76.0324L64.5444 73.7942L55.1316 71.8639Z" fill="#1B2A30"/>
<path d="M63.8964 64.547L46.8285 64.1349C49.2848 72.0906 46.7594 75.6308 46.7594 75.6308L52.6294 77.0882L57.4549 77.2047L63.3906 76.0324C63.3906 76.0324 61.0452 72.3746 63.8964 64.547Z" fill="#E2A379"/>
<path d="M55.1317 71.8639L46.7594 75.6308C46.7594 75.6308 50.2936 81.7785 54.8582 81.8888C59.42 81.9989 63.3906 76.0324 63.3906 76.0324L55.1317 71.8639Z" fill="#E2A379"/>
<path d="M55.0206 75.3983C51.5304 75.314 48.1687 75.4279 45.0233 75.7394L54.5805 95.5984L65.1186 76.247C61.9472 75.7829 58.5532 75.4836 55.0206 75.3983Z" fill="#263A44"/>
<path d="M55.0771 73.1363C48.8879 72.9869 46.8024 75.6095 46.8024 75.6095L54.7677 89.0248L63.3912 76.0101C63.3685 76.0096 61.2409 73.2852 55.0771 73.1363Z" fill="#E2A379"/>
<path d="M56.2602 28.4483C35.9432 27.9577 19.3827 25.6373 19.3827 25.6373C19.3584 26.6095 21.638 32.897 21.6778 33.0066C22.4585 35.1382 29.8057 46.8356 55.8073 47.4634C81.806 48.0912 89.533 36.7802 90.5941 34.7348C90.6393 34.6272 93.2548 28.3939 93.2786 27.444C93.2338 27.4206 76.5772 28.9388 56.2602 28.4483Z" fill="#BF8A3D"/>
<path d="M56.5514 16.8072C45.8656 16.5492 37.0642 20.9106 36.566 40.8277C36.3971 47.5773 37.6231 52.8916 39.5626 57.0135C43.815 66.0913 51.4825 69.4038 55.2335 69.4943C58.9844 69.5849 66.8084 66.6465 71.5095 57.7849C73.6527 53.7616 75.1429 48.5129 75.3117 41.7633C75.8099 21.8462 67.2372 17.0652 56.5514 16.8072Z" fill="#E6E7E8"/>
<path d="M56.5514 16.8072C45.8656 16.5491 39.2785 20.9641 38.7803 40.8812C38.6114 47.6308 45.2449 65.0666 55.3382 65.3103C65.4314 65.5541 72.9292 48.4371 73.0974 41.7099C73.5957 21.7927 67.2373 17.0652 56.5514 16.8072Z" fill="#F4B382"/>
<path d="M65.1855 57.805C65.2206 56.4038 61.049 54.6419 56.4041 54.3374C56.183 54.3321 55.6432 54.8152 55.6007 54.8141C55.5582 54.8131 55.0665 54.2828 54.8674 54.3003C50.1902 54.3797 45.9356 55.9382 45.9006 57.3393C45.8898 57.7711 45.4584 60.9521 47.1061 60.0665C48.487 58.3941 51.5252 57.1518 54.7515 57.121C55.0152 57.1274 55.2734 57.351 55.5598 57.358C55.8433 57.3648 56.1351 57.1544 56.3987 57.1608C59.5992 57.3691 62.4245 58.516 63.8451 60.4707C65.4465 61.4348 65.1742 58.2591 65.1855 57.805Z" fill="#E6E7E8"/>
<path d="M36.8996 41.4407C35.0492 41.697 33.6031 42.462 34.5079 48.4794C35.4098 54.4994 36.6985 54.8093 38.5489 54.5529L36.8996 41.4407Z" fill="#F4B382"/>
<path d="M74.9677 42.3599L72.6676 55.3768C74.503 55.7221 75.8028 55.4748 77.0075 49.5056C78.1893 43.5386 76.8025 42.7275 74.9677 42.3599Z" fill="#F4B382"/>
<path d="M56.5649 16.2696C43.8377 15.9622 37.0642 20.9106 36.566 40.8277L45.4461 26.289C45.4461 26.289 51.4562 27.3623 56.2845 27.4789C61.1128 27.5955 66.4435 26.796 66.4435 26.796L75.3118 41.7633C75.81 21.8462 69.2921 16.5769 56.5649 16.2696Z" fill="#E6E7E8"/>
<path d="M61.37 8.46687C59.6716 7.97431 58.2282 7.72484 56.6037 7.68561C55.135 7.65015 53.1979 7.8598 51.6923 8.27778C49.7417 8.23068 53.3853 10.7994 56.677 10.8788C59.9686 10.9583 62.9719 8.50555 61.37 8.46687Z" fill="#9B7334"/>
<path d="M61.3819 7.9933C59.7148 7.95305 58.1959 9.01736 56.5708 9.00041C55.1022 8.96495 53.5698 7.84926 51.7042 7.80422C47.7775 7.7094 40.868 21.4986 40.868 21.4986L71.9814 22.2499C71.9814 22.2499 64.5629 8.07012 61.3819 7.9933Z" fill="#D19743"/>
<path d="M41.2174 33.0464L38.0018 33.4426C37.0216 35.7714 36.6397 38.6749 36.5691 41.4968C36.5691 41.4968 38.5102 41.1339 38.4858 42.1061L38.9523 48.0682L39.8188 47.6794C39.8549 42.7189 41.2174 33.0464 41.2174 33.0464Z" fill="#E6E7E8"/>
<path d="M74.2696 34.3184L71.068 34.1547C71.068 34.1547 71.955 43.494 71.7856 48.4513L72.6315 48.8815L73.3956 42.9491C73.4199 41.9769 75.3404 42.433 75.3404 42.433C75.3889 39.5883 75.1549 36.6922 74.2696 34.3184Z" fill="#E6E7E8"/>
<path d="M56.4678 20.1499C36.1508 19.6593 19.3762 25.8964 19.3762 25.8964C19.3519 26.8658 21.6691 33.352 21.6713 33.2657C21.6772 33.0289 40.0533 32.1765 56.1799 32.566C72.3065 32.9554 90.5876 34.9939 90.5876 34.9939C90.6328 34.8863 93.2484 28.6502 93.2721 27.7031C93.2273 27.6797 76.7848 20.6405 56.4678 20.1499Z" fill="#E2A84B"/>
<path d="M53.177 90.2379L52.6718 110.436C53.1759 110.471 53.7032 110.484 54.2079 110.496C54.7125 110.508 55.2399 110.521 55.7451 110.511L56.2498 90.3344L53.1764 90.2602L53.177 90.2379Z" fill="#263A44"/>
<path d="M73.1286 77.3239L72.5203 101.642L36.3603 100.769L36.9691 76.4285C34.9645 76.7257 33.0887 77.0902 31.3229 77.4796L30.6451 104.578C37.7357 108.158 45.7171 110.269 54.2311 110.474C62.7225 110.679 70.8224 108.957 78.0608 105.723L78.7381 78.6468C76.9945 78.1503 75.116 77.7175 73.1286 77.3239Z" fill="#E2A84B"/>
<path d="M35.1364 100.586C35.1312 100.795 35.0864 100.995 34.9994 101.188C34.9123 101.378 34.7918 101.545 34.6379 101.689C34.4839 101.833 34.3081 101.943 34.1105 102.017C33.9129 102.093 33.7078 102.127 33.4951 102.122C33.2825 102.116 33.0793 102.073 32.8857 101.987C32.692 101.904 32.5191 101.786 32.3726 101.635C32.226 101.483 32.1168 101.311 32.0394 101.116C31.9621 100.919 31.9274 100.718 31.9326 100.509C31.9378 100.3 31.9826 100.1 32.0696 99.9103C32.1566 99.7201 32.2743 99.5529 32.4282 99.4089C32.5822 99.2648 32.7608 99.1549 32.9585 99.0788C33.1561 99.0056 33.3612 98.9687 33.5739 98.9738C33.7865 98.979 33.9896 99.0257 34.1833 99.1084C34.3769 99.1939 34.547 99.3123 34.6935 99.4636C34.8401 99.6148 34.9521 99.7876 35.0295 99.9817C35.1069 100.176 35.1416 100.377 35.1364 100.586Z" fill="#424131"/>
<path d="M76.9555 101.596C76.9503 101.805 76.9056 102.005 76.8185 102.198C76.7315 102.388 76.6138 102.555 76.4599 102.699C76.3059 102.843 76.1273 102.953 75.9297 103.026C75.732 103.102 75.5269 103.137 75.3143 103.131C75.1016 103.126 74.8985 103.082 74.7049 102.997C74.5112 102.914 74.3411 102.796 74.1945 102.644C74.048 102.493 73.936 102.32 73.8586 102.126C73.7812 101.929 73.7465 101.728 73.7518 101.519C73.757 101.31 73.8017 101.11 73.8887 100.92C73.9758 100.73 74.0963 100.563 74.2502 100.419C74.4042 100.275 74.58 100.165 74.7776 100.089C74.9752 100.015 75.1804 99.9785 75.393 99.9836C75.6057 99.9888 75.8087 100.035 76.0024 100.118C76.196 100.204 76.369 100.322 76.5155 100.473C76.6621 100.625 76.7713 100.797 76.8487 100.992C76.9261 101.186 76.9608 101.387 76.9555 101.596Z" fill="#424131"/>
<path d="M54.8414 91.2927C54.905 91.3584 45.6961 73.3391 45.6961 73.3391L37.7207 76.2097L39.1333 81.2052L46.1532 81.3748L43.6811 83.6898L54.8414 91.2927Z" fill="#263A44"/>
<path d="M72.3667 77.0463L64.5445 73.7942C64.5445 73.7942 54.4457 91.3473 54.5125 91.2848L66.0395 84.2297L63.6861 81.7981L70.706 81.9676L72.3667 77.0463Z" fill="#263A44"/>
</svg>
